<?xml version="1.0" encoding="UTF-8" standalone="no"?><!DOCTYPE svg PUBLIC "-//W3C//DTD SVG 1.1//EN" "http://www.w3.org/Graphics/SVG/1.1/DTD/svg11.dtd"><svg width="100%" height="100%" viewBox="0 0 5867 3067" version="1.1" xmlns="http://www.w3.org/2000/svg" xmlns:xlink="http://www.w3.org/1999/xlink" xml:space="preserve" xmlns:serif="http://www.serif.com/" style="fill-rule:evenodd;clip-rule:evenodd;stroke-linejoin:round;stroke-miterlimit:2;"><path d="M3033.333,554.167c14.621,12.769 112.025,206.218 195.833,295.833c25.473,28.779 49.924,57.897 54.199,62.988c18.302,17.298 42.235,18.934 66.113,23.21c291.675,55.979 500.192,229.317 583.854,351.302l6.136,8.431c10.442,15.645 11.139,26.668 8.407,44.965c-1.003,4.469 -3.673,16.369 -21.405,53.1c-69.146,139.306 -216.759,189.997 -353.849,240.331c-12.827,4.896 -25.008,10.48 -37.264,16.662c-73.178,35.59 -77.295,34.971 -1368.691,28.178c36.783,-37.28 40.633,-31.834 141.667,-95.833c89.587,-56.749 88.091,-57.796 120.833,-75c13.939,4.646 16.009,7.554 24.74,18.75c43.205,50.861 113.584,93.413 179.427,106.25c61.626,2.243 61.41,0.689 770.833,0c-11.051,-9.625 -104.393,-90.921 -143.064,-114.421c-25.792,-17.161 -25.792,-17.161 -31.055,-32.915c-2.176,-23.94 2.781,-163.458 3.286,-177.664l41.667,0l-0.675,14.44c-8.909,91.555 -8.909,91.555 18.498,174.183c13.504,12.013 28.49,20.584 44.818,28.221c14.998,7.303 103.92,81.7 113.663,94.52c7.073,6.521 7.073,6.521 18.348,4.684c9.08,-2.355 126.734,-41.379 260.899,-103.597c52.363,-24.699 92.889,-52.864 127.783,-99.951c-12.257,1.982 -126.239,20.412 -153.174,25c-65.461,11.397 -115.436,13.47 -175.651,-16.681c-12.91,-6.18 -56.207,-22.139 -75.342,-33.319c-5.326,-13.503 -4.857,-18.761 -0.26,-32.552l4.427,-9.115c20.69,3.212 108.879,45.233 118.134,49.643c49.53,14.741 309.376,-29.245 317.267,-39.942l8.073,-17.188c3.05,-11.864 1.975,-18.35 -1.807,-30.013c-34.072,-55.034 -82.387,-102.504 -133.333,-141.667l-12.272,-9.945c-125.147,-99.898 -282.114,-159.044 -438.249,-189.274c-61.001,-12.2 -52.628,-27.321 -108.854,-80.469c-62.15,-61.458 -110.375,-140.576 -153.125,-216.146c-6.25,124.018 42.108,230.993 123.958,323.438c4.463,4.736 8.954,9.448 13.542,14.062c-7.812,19.792 -7.812,19.792 -12.5,29.167c-27.355,-5.436 -251.953,-146.948 -337.5,-225c36.058,123.022 156.714,203.042 175,216.667l0,4.167c-56.092,5.701 -56.092,5.701 -79.98,-7.178c-11.527,-9.573 -22.019,-19.64 -32.52,-30.322l-25,-25c0.306,-0.353 -8.05,-7.387 -12.5,-16.667c-173.062,11.522 -363.796,127.126 -392.403,144.465c-24.86,14.34 -24.86,14.34 -41.614,12.127c-13.824,-7.711 -26.994,-16.003 -39.941,-25.081c-28.066,-19.183 -278.185,-174.187 -288.542,-181.51l0,-4.167l720.833,0l-25,-62.5c-12.278,-44.032 -17.341,-83.533 -16.667,-129.167c20.333,14.332 187.855,164.191 287.5,212.5c-19.668,-38.907 -19.04,-38.334 -38.818,-77.539c-25.861,-53.953 -25.762,-136.887 -25.748,-148.982c0.832,-47.573 5.389,-105.126 27.066,-148.479Zm-779.167,395.833l0,4.167c20.71,15.459 164.839,106.763 187.256,115.739c8.577,0.928 8.577,0.928 17.443,-3.2c64.492,-43.013 231.776,-107.346 241.135,-116.705l-445.833,0Zm174.528,614.486c-7.861,-1.986 -7.861,-1.986 -16.813,2.181c-6.815,4.78 -13.699,9.47 -20.756,13.883c-6.847,4.208 -13.676,8.446 -20.487,12.712l-10.742,6.738l-10.84,6.738l-10.417,6.543c-12.017,7.513 -20.084,13.997 -30.306,24.219l216.667,0l0,-4.167c-18.59,-10.045 -35.181,-20.797 -51.652,-34.017c-14.651,-11.951 -29.313,-23.772 -44.653,-34.831Z" style="fill:#7cafab;"/><path d="M2514.844,1911.979c4.873,4.229 9.652,8.569 14.323,13.021l7.715,6.608c31.041,28.135 47.934,66.64 51.53,108.057c1.652,48.118 -11.216,87.63 -38.411,127.002l-7.292,11.198c-36.188,37.194 -78.985,55.513 -130.463,57.429c-34.641,0.409 -64.357,-2.385 -95.579,-18.627l-10.986,-5.501c-43.249,-23.661 -66.296,-57.7 -84.847,-102.832c-13.071,-49.294 -4.804,-98.715 19.792,-142.448c28.162,-43.604 69.762,-71.83 120.199,-85.482c52.678,-6.51 109.741,-0.285 154.02,31.576Zm-48.177,42.188c-51.32,-28.511 -108.212,-23.357 -151.497,16.895c-21.168,25.099 -33.337,52.259 -33.659,85.189c1.641,36.996 13.089,65.35 40.365,90.885c33.949,28.052 63.644,30.969 107.292,27.865c28.324,-9.441 49.482,-20.932 68.571,-44.434c20.273,-30.692 28.667,-64.983 21.484,-101.188c-9.384,-31.378 -24.509,-57.682 -52.555,-75.212Z" style="fill:#45565c;"/><path d="M2049.479,924.479c19.832,11.36 38.735,24.296 57.635,37.134c22.602,15.331 45.665,29.811 68.927,44.116c60.858,37.456 121.15,75.784 181.42,114.178c21.917,13.958 43.86,27.875 65.84,41.734c9.806,6.185 19.604,12.383 29.401,18.583c11.532,7.295 23.098,14.53 34.701,21.712c81.545,50.817 81.545,50.817 91.764,85.563c3.62,30.119 1.241,54.313 -16.667,79.167c-24.342,25.331 -53.919,42.783 -83.854,60.677c-9.704,5.872 -19.394,11.767 -29.085,17.66c-2.427,1.471 -4.854,2.943 -7.355,4.459c-23.216,14.095 -46.152,28.608 -69.028,43.246c-3.744,2.393 -7.489,4.786 -11.346,7.252c-7.356,4.702 -14.712,9.406 -22.066,14.11c-16.688,10.649 -33.433,21.207 -50.181,31.763c-24.695,15.565 -49.335,31.215 -73.935,46.931c-41.076,26.223 -82.198,52.352 -124.067,77.296c-5.347,3.202 -10.674,6.439 -15.975,9.717c-30.107,18.581 -56.386,32.777 -92.273,24.39c-28.875,-11.664 -45.749,-25.851 -58.333,-54.167c-2.222,-3.741 -2.222,-3.741 -4.489,-7.557c-5.158,-12.224 -4.906,-22.334 -4.93,-35.594c-0.03,-5.45 -0.059,-10.9 -0.089,-16.515c0.01,-6.033 0.02,-12.065 0.031,-18.098c-0.018,-6.359 -0.04,-12.718 -0.065,-19.077c-0.056,-17.27 -0.058,-34.539 -0.048,-51.809c0.004,-14.423 -0.016,-28.847 -0.036,-43.27c-0.046,-34.037 -0.048,-68.074 -0.023,-102.112c0.025,-35.091 -0.026,-70.18 -0.115,-105.271c-0.073,-30.142 -0.098,-60.284 -0.085,-90.426c0.008,-17.996 -0.003,-35.991 -0.061,-53.986c-0.052,-16.933 -0.044,-33.864 0.01,-50.797c0.01,-6.203 -0.001,-12.406 -0.036,-18.608c-0.213,-41.434 0.57,-72.509 30.769,-103.547c29.821,-23.476 69.368,-24.934 103.646,-8.854Zm-80.729,41.406c-10.761,15.694 -10.952,28.446 -11.002,46.993c-0.024,5.31 -0.048,10.62 -0.072,16.091c-0.005,5.897 -0.01,11.794 -0.014,17.691c-0.019,6.201 -0.04,12.402 -0.063,18.603c-0.055,16.856 -0.082,33.713 -0.1,50.569c-0.012,10.532 -0.029,21.063 -0.048,31.595c-0.057,32.953 -0.097,65.905 -0.113,98.858c-0.019,38.037 -0.092,76.072 -0.213,114.109c-0.09,29.402 -0.132,58.805 -0.138,88.207c-0.004,17.56 -0.029,35.12 -0.103,52.679c-0.069,16.522 -0.078,33.043 -0.041,49.565c0.003,6.057 -0.015,12.114 -0.056,18.17c-0.053,8.283 -0.021,16.567 0.015,24.85c-0.006,4.631 -0.012,9.262 -0.019,14.034c2.185,18.235 8.811,32.111 21.081,45.745c15.097,7.344 26.853,8.032 42.969,4.688c49.437,-18.64 93.482,-50.991 137.555,-79.504c20.948,-13.459 42.09,-26.606 63.226,-39.766c32.827,-20.47 65.591,-41.032 98.276,-61.728c22.493,-14.228 45.056,-28.342 67.646,-42.415c16.899,-10.537 33.772,-21.115 50.643,-31.697c11.088,-6.931 22.21,-13.804 33.337,-20.671c6.371,-3.99 12.741,-7.983 19.108,-11.979c2.853,-1.735 5.705,-3.47 8.645,-5.258c17.456,-11.067 28.135,-21.744 38.23,-40.315c2.882,-17.93 2.296,-25.793 -7.975,-40.885c-15.251,-17.381 -34.699,-28.415 -54.264,-40.365c-8.242,-5.137 -16.483,-10.275 -24.723,-15.413c-4.221,-2.612 -8.442,-5.225 -12.791,-7.916c-20.327,-12.631 -40.49,-25.515 -60.663,-38.389c-7.693,-4.894 -15.386,-9.788 -23.079,-14.681c-16.479,-10.497 -32.909,-21.066 -49.316,-31.673c-29.989,-19.325 -60.28,-38.159 -90.555,-57.031c-29.379,-18.332 -58.64,-36.838 -87.831,-55.469c-37.403,-23.852 -37.403,-23.852 -75,-47.396c-4.055,-2.519 -8.11,-5.038 -12.288,-7.633c-21.566,-12.369 -49.317,-17.449 -70.264,-2.262Z" style="fill:#5d7f80;fill-rule:nonzero;"/><path d="M3033.333,554.167c12.181,10.638 18.506,22.631 25.928,36.898c2.592,4.934 5.184,9.868 7.777,14.801c2.013,3.86 2.013,3.86 4.067,7.797c24.391,46.671 49.397,92.655 78.895,136.338c2.566,3.811 2.566,3.811 5.184,7.699c22.452,33.04 46.663,63.089 73.983,92.301c4.974,5.619 9.923,11.261 14.844,16.927c2.315,2.637 4.63,5.274 7.015,7.992c5.319,6.125 10.574,12.307 15.788,18.522c4.31,5.052 4.31,5.052 8.708,10.205c2.589,3.083 5.178,6.166 7.845,9.342c18.302,17.298 42.235,18.934 66.113,23.21c108.637,20.85 216.148,60.341 313.021,113.802c2.561,1.409 5.121,2.818 7.76,4.27c50.946,28.437 101.839,61.649 142.24,104.063c-3.223,2.578 -3.223,2.578 -6.51,5.208c-6.999,6.771 -6.999,6.771 -5.208,15.365c3.438,8.727 7.29,16.993 11.719,25.26c-16.242,0 -18.279,-4.415 -29.688,-15.625c-125.407,-115.929 -301.712,-180.882 -466.748,-212.793c-28.656,-5.698 -46.493,-12.027 -66.064,-34.082c-2.374,-2.643 -4.748,-5.285 -7.194,-8.008c-4.967,-5.646 -9.882,-11.338 -14.746,-17.074c-6.613,-7.551 -13.48,-14.384 -20.768,-21.273c-62.15,-61.458 -110.375,-140.576 -153.125,-216.146c-6.25,124.018 42.108,230.993 123.958,323.438c4.463,4.736 8.954,9.448 13.542,14.062c-7.812,19.792 -7.812,19.792 -12.5,29.167c-13.307,-2.645 -22.907,-7.307 -34.359,-14.518c-3.449,-2.154 -6.898,-4.309 -10.451,-6.529c-5.534,-3.504 -5.534,-3.504 -11.18,-7.078c-7.839,-4.917 -15.678,-9.832 -23.519,-14.746c-6.064,-3.813 -6.064,-3.813 -12.25,-7.703c-12.356,-7.727 -24.764,-15.359 -37.197,-22.961c-5.946,-3.644 -5.946,-3.644 -12.013,-7.361c-7.634,-4.674 -15.275,-9.338 -22.923,-13.989c-5.193,-3.192 -5.193,-3.192 -10.491,-6.449c-3.043,-1.859 -6.087,-3.718 -9.222,-5.634c-7.84,-5.379 -14.098,-11.088 -20.563,-18.032l8.333,0c1.375,-4.125 2.75,-8.25 4.167,-12.5c4.125,-2.062 4.125,-2.062 8.333,-4.167c1.375,-4.125 2.75,-8.25 4.167,-12.5c16.846,6.188 31.714,14.287 47.135,23.438c4.453,2.632 8.905,5.264 13.493,7.975c3.368,2.009 6.735,4.018 10.205,6.087c-3.319,-6.566 -3.319,-6.566 -6.706,-13.265c-7.602,-15.077 -15.133,-30.187 -22.622,-45.321c-3.138,-6.331 -6.308,-12.645 -9.491,-18.953c-20.31,-42.372 -26.017,-87.913 -25.765,-134.44c0.009,-7.198 0.009,-7.198 0.017,-14.542c0.832,-47.573 5.389,-105.126 27.066,-148.479Z" style="fill:#7db0ac;fill-rule:nonzero;"/><path d="M1562.5,1883.333l66.667,0c23.082,45.259 44.771,91.026 66.043,137.162c11.888,25.746 23.902,51.42 36.252,76.949l3.668,7.584c5.764,11.9 11.552,23.789 17.363,35.667c14.15,29.1 26.97,58.5 39.173,88.471l-75,0l-33.333,-75l-179.167,-4.167l-4.167,20.833c-4.087,10.291 -8.275,20.361 -12.76,30.469l-12.24,27.865l-70.833,0c6.57,-19.709 13.948,-37.825 22.884,-56.445l4.32,-9.096c3.053,-6.425 6.112,-12.847 9.176,-19.266c8.064,-16.893 16.081,-33.809 24.102,-50.723l4.853,-10.226c14.006,-29.538 27.779,-59.178 41.436,-88.879l6.049,-13.153l11.2,-24.369c11.334,-24.607 22.829,-49.139 34.314,-73.676Zm29.167,70.833c-5.242,11.726 -10.47,23.458 -15.682,35.197l-6.453,14.543l-6.307,14.103l-6.144,13.875c-9.437,21.205 -16.303,41.618 -23.747,63.949l125,0c0,-9.543 0,-9.543 -18.644,-51.408c-3.833,-8.541 -7.659,-17.083 -11.437,-25.648c-2.462,-5.585 -4.937,-11.164 -7.426,-16.737l-3.59,-8.014c-6.952,-15.596 -12.316,-28.785 -25.57,-39.86Z" style="fill:#45565c;"/><path d="M1837.5,1887.5c25.005,-4.001 50.39,-7.624 75,0c20.075,14.753 32.466,36.992 44.92,58.15c6.967,11.68 14.809,22.506 22.788,33.516c3.832,5.547 7.657,11.099 11.458,16.667c16.802,-5.601 22.435,-16.713 32.031,-30.729c1.869,-2.603 3.738,-5.206 5.664,-7.888c8.86,-12.403 16.782,-24.465 23.975,-37.946c7.72,-13.63 13.221,-22.37 25.83,-31.771c24.691,-5.398 50.103,-2.633 75,0c-10.591,19.281 -21.756,36.581 -35.417,53.906c-3.643,4.68 -7.283,9.362 -10.921,14.046c-1.922,2.465 -3.844,4.929 -5.825,7.469c-11.23,14.399 -22.415,28.829 -33.514,43.329c-2.186,2.793 -4.372,5.585 -6.624,8.463c-15.633,19.671 -15.633,19.671 -20.199,43.621c6.276,10.552 6.276,10.552 15.885,20.573c15.03,17.356 28.981,34.867 42.188,53.646c2.551,3.623 2.551,3.623 5.154,7.319c3.496,4.97 6.99,9.942 10.481,14.916c5.721,8.083 11.527,16.098 17.356,24.103c1.931,2.662 3.862,5.325 5.852,8.068c3.726,5.132 7.466,10.255 11.22,15.367c12.696,17.574 12.696,17.574 12.696,26.842c-11.914,1.021 -23.74,1.758 -35.677,2.344c-3.333,0.314 -6.666,0.628 -10.099,0.952c-15.453,0.568 -25.238,0.239 -37.1,-10.281c-7.737,-9.841 -14.527,-19.982 -21.29,-30.515c-5.178,-7.217 -10.381,-14.417 -15.609,-21.598c-5.137,-7.29 -10.264,-14.587 -15.381,-21.891c-2.651,-3.736 -5.301,-7.471 -8.032,-11.32c-2.5,-3.564 -5,-7.127 -7.576,-10.799c-2.258,-3.209 -4.516,-6.418 -6.843,-9.724c-4.892,-8.001 -4.892,-8.001 -4.892,-16.334c-18.684,17.362 -32.975,36.758 -47.656,57.552c-6.861,9.642 -13.729,19.274 -20.691,28.843c-4.404,6.247 -8.597,12.648 -12.557,19.185c-14.147,22.154 -14.147,22.154 -28.083,26.187c-10.236,0.679 -19.855,0.33 -30.075,-0.518c-3.464,-0.15 -6.929,-0.301 -10.498,-0.456c-8.488,-0.39 -16.966,-0.988 -25.439,-1.628c5.749,-12.253 12.396,-22.836 20.443,-33.708c2.393,-3.243 4.787,-6.487 7.253,-9.829c2.548,-3.422 5.096,-6.844 7.721,-10.37c2.607,-3.519 5.214,-7.037 7.9,-10.663c55.964,-75.349 55.964,-75.349 74.75,-96.271c7.744,-9.105 7.744,-9.105 6.852,-18.311c-5.353,-10.941 -11.958,-19.819 -19.45,-29.443c-3.335,-4.345 -6.671,-8.69 -10.107,-13.167c-1.883,-2.45 -3.766,-4.9 -5.707,-7.424c-12.552,-16.511 -24.774,-33.266 -37.05,-49.982c-4.98,-6.771 -9.96,-13.542 -14.941,-20.312c-2.14,-2.911 -4.279,-5.822 -6.484,-8.822c-4.304,-5.828 -8.721,-11.574 -13.22,-17.253c-5.459,-7.78 -5.459,-7.78 -5.459,-16.113Z" style="fill:#45565c;fill-rule:nonzero;"/><path d="M4270.833,1887.5l41.667,0c28.179,60.073 55.482,120.375 81.43,181.448c16.426,38.657 33.249,77.126 50.285,115.517l5.443,12.296l4.788,10.776c3.887,9.13 3.887,9.13 8.054,21.63l-45.833,0c-5.574,-13.013 -11.126,-26.035 -16.667,-39.062l-4.818,-11.23l-4.557,-10.742l-4.232,-9.918c-3.06,-8.213 -3.06,-8.213 -3.06,-16.547l-183.333,0l-12.5,37.5c-3.624,9.158 -7.343,18.28 -11.198,27.344l-5.518,13.037l-4.118,9.619l-41.667,0c8.993,-28.557 20.017,-55.524 32.292,-82.812c21.319,-47.877 42.046,-95.988 62.557,-144.216c16.383,-38.518 33.177,-76.752 50.984,-114.639Zm16.667,45.833c-7.354,17.427 -14.696,34.86 -22.013,52.303l-8.976,21.395c-4.425,10.481 -8.849,20.963 -13.246,31.455l-4.186,10l-4.078,9.617l-3.791,9.096c-5.371,12.772 -7.543,22.798 -10.377,36.968l141.667,0c0,-13.797 -3.914,-23.246 -9.208,-35.83l-4.024,-9.352l-8.374,-19.645c-4.44,-10.305 -8.872,-20.611 -13.248,-30.943c-2.853,-6.745 -5.721,-13.483 -8.603,-20.215l-4.15,-9.665c-7.275,-17.236 -13.409,-32.321 -27.393,-45.182Z" style="fill:#48585d;"/><path d="M2079.167,1145.833c15.534,6.214 26.494,11.402 40.104,20.312c4.023,2.605 8.046,5.21 12.191,7.894c2.265,1.47 4.529,2.939 6.862,4.454c14.669,9.455 29.461,18.716 44.228,28.017c30.59,19.304 61.142,38.667 91.667,58.073c3.853,2.447 7.706,4.894 11.675,7.415c18.729,11.916 37.369,23.924 55.773,36.335c-5.91,17.731 -18.914,23.114 -34.115,32.552c-3.132,1.985 -6.265,3.971 -9.492,6.016c-6.835,4.329 -13.68,8.643 -20.533,12.944c-14.84,9.322 -29.623,18.732 -44.405,28.144c-7.688,4.893 -15.381,9.778 -23.079,14.655c-19.768,12.54 -39.439,25.203 -58.968,38.111c-3.814,2.514 -7.629,5.029 -11.559,7.619c-7.276,4.808 -14.537,9.64 -21.779,14.498c-3.248,2.144 -6.496,4.287 -9.842,6.496c-2.842,1.898 -5.685,3.796 -8.613,5.752c-7.614,4.047 -7.614,4.047 -20.114,4.047l0,-333.333Z" style="fill:#5f8787;fill-rule:nonzero;"/><path d="M2850,1887.5l37.5,0c1.292,2.292 2.583,4.584 3.914,6.946c6.331,11.228 12.666,22.454 19.002,33.679c2.381,4.219 4.763,8.437 7.216,12.784c13.943,24.668 27.947,49.3 42.035,73.886c2.244,3.918 2.244,3.918 4.533,7.914c7.347,12.825 14.703,25.646 22.07,38.46c2.694,4.698 5.387,9.397 8.162,14.237c2.383,4.147 4.766,8.294 7.22,12.566c4.696,8.456 9.099,17.079 13.277,25.804c4.735,11.653 4.735,11.653 14.235,11.223c1.137,-3.661 2.275,-3.156 3.446,-6.929c4.563,-12.984 9.866,-24.303 16.41,-36.382c3.463,-6.418 3.463,-6.418 6.996,-12.965c3.724,-6.819 3.724,-6.819 7.523,-13.777c2.555,-4.71 5.11,-9.42 7.742,-14.273c18.803,-34.606 37.894,-69.052 57.101,-103.435c3.777,-6.762 3.777,-6.762 7.629,-13.661c2.322,-4.134 4.643,-8.268 7.035,-12.527c2.051,-3.653 4.102,-7.305 6.214,-11.069c4.902,-8.316 4.902,-8.316 9.069,-12.483l33.333,0l0,341.667l-37.5,0c-1.375,-83.875 -2.75,-167.75 -4.167,-254.167c-19.25,35.75 -38.5,71.5 -58.333,108.333c-10.233,18.929 -20.469,37.856 -30.729,56.771c-2.32,4.281 -4.641,8.562 -7.031,12.972c-5.467,10.086 -10.936,20.172 -16.406,30.257l-25,0c-23.7,-41.143 -46.937,-82.537 -70.046,-124.014c-3.556,-6.369 -3.556,-6.369 -7.184,-12.867c-2.079,-3.731 -4.158,-7.462 -6.3,-11.306c-12.248,-21.545 -24.816,-42.906 -37.304,-64.313c-1.375,85.25 -2.75,170.5 -4.167,258.333l-37.5,0l0,-341.667Z" style="fill:#47575d;fill-rule:nonzero;"/><path d="M3633.333,1887.5c202.933,0 202.933,0 253.76,49.365c38.292,40.721 44.496,85.429 43.49,139.551c-2.073,42.25 -21.061,81.739 -51.416,111.084c-72.036,56.663 -157.842,41.667 -245.833,41.667l0,-341.667Zm41.667,33.333l0,270.833c104.897,8.105 104.897,8.105 185.417,-38.802c28.967,-38.452 35.663,-80.747 31.25,-127.865c-10.114,-35.317 -25.148,-65.08 -57.552,-84.115c-5.068,-3.053 -5.068,-3.053 -10.238,-6.169c-49.635,-24.214 -88.557,-13.883 -148.877,-13.883Z" style="fill:#4a595d;fill-rule:nonzero;"/><path d="M3308.333,1883.333l225,0l0,37.5l-183.333,0l0,116.667l162.5,0l0,33.333l-162.5,0l0,120.833l191.667,0l0,37.5l-233.333,0l0,-345.833Z" style="fill:#415257;fill-rule:nonzero;"/><path d="M2716.667,1400l229.167,0c-5.907,17.722 -10.604,30.248 -19.645,45.85c-2.173,3.773 -4.345,7.546 -6.584,11.434c-2.259,3.87 -4.517,7.74 -6.844,11.727c-2.242,3.886 -4.485,7.772 -6.795,11.776c-10.177,17.605 -20.475,35.126 -30.965,52.547c-51.768,-1.954 -90.58,-34.495 -125,-70.833c-16.389,-20.42 -24.954,-37.362 -33.333,-62.5Z" style="fill:#547476;fill-rule:nonzero;"/><path d="M3008.333,1341.667c16.977,5.659 18.733,13.204 27.246,28.743c2.04,3.692 2.04,3.692 4.12,7.459c2.868,5.209 5.718,10.428 8.551,15.657c4.332,7.996 8.715,15.961 13.11,23.922c21.243,38.696 21.243,38.696 26.139,53.385c-33.191,36.403 -83.299,68.289 -133.333,70.833c-19.45,0.258 -38.883,0.243 -58.333,0c9.84,-26.114 23.937,-49.904 37.5,-74.219c1.392,-2.504 2.784,-5.008 4.218,-7.588c22.363,-40.194 45.688,-79.637 70.782,-118.193Z" style="fill:#537274;fill-rule:nonzero;"/><path d="M2975,1091.667c45.429,2.753 91.208,38.5 121.403,69.906c15.121,18.038 32.764,39.233 32.764,63.428l-225,0c4.004,-16.016 9.259,-27.25 17.041,-41.699c2.581,-4.796 5.162,-9.593 7.821,-14.535c2.022,-3.721 2.022,-3.721 4.084,-7.517c4.122,-7.594 8.208,-15.206 12.289,-22.821c20.181,-37.344 20.181,-37.344 29.598,-46.761Z" style="fill:#6b9996;fill-rule:nonzero;"/><path d="M2991.667,1245.833c20.616,-0.309 41.231,-0.536 61.849,-0.687c7.017,-0.063 14.033,-0.148 21.049,-0.256c10.074,-0.151 20.146,-0.222 30.221,-0.278c3.147,-0.065 6.294,-0.129 9.536,-0.196c8.846,-0.003 8.846,-0.003 23.179,1.416c19.227,28.841 15.405,71.067 10.726,104.248c-7.567,34.68 -23.159,64.76 -39.893,95.752c-16.423,-5.474 -17.768,-11.516 -25.928,-26.546c-2.57,-4.684 -5.139,-9.368 -7.787,-14.194c-2.738,-5.083 -5.476,-10.166 -8.212,-15.25c-2.796,-5.131 -5.596,-10.261 -8.399,-15.388c-5.605,-10.258 -11.192,-20.526 -16.767,-30.799c-7.004,-12.837 -14.103,-25.612 -21.285,-38.35c-1.944,-3.451 -3.888,-6.903 -5.891,-10.458c-3.575,-6.333 -7.158,-12.662 -10.752,-18.984c-11.644,-20.771 -11.644,-20.771 -11.644,-30.03Z" style="fill:#648b8a;fill-rule:nonzero;"/><path d="M2741.667,1179.167c16.722,5.574 18.451,12.52 26.986,27.751c1.363,2.406 2.725,4.813 4.129,7.292c4.422,7.83 8.79,15.69 13.156,23.551c3.005,5.351 6.013,10.699 9.025,16.046c5.937,10.552 11.853,21.116 17.753,31.689c6.884,12.3 13.833,24.558 20.846,36.786c1.764,3.085 3.527,6.171 5.345,9.35c3.15,5.51 6.309,11.015 9.477,16.514c9.951,17.573 9.951,17.573 9.951,26.854l-150,0c-16.855,-50.565 -13.858,-105.457 6.478,-154.671c7.655,-15.247 15.939,-28.063 26.855,-41.162Z" style="fill:#618a88;fill-rule:nonzero;"/><path d="M2916.667,1086.979c4.842,0.056 4.842,0.056 9.782,0.114c7.851,0.097 15.701,0.246 23.551,0.407c-21.333,44.761 -45.489,87.734 -70.068,130.778c-13.064,22.908 -25.721,46.026 -38.265,69.222c-13.383,-12.305 -22.057,-24.652 -30.908,-40.495c-3.839,-6.856 -3.839,-6.856 -7.756,-13.851c-2.624,-4.753 -5.248,-9.507 -7.951,-14.404c-4.008,-7.13 -4.008,-7.13 -8.097,-14.404c-21.468,-38.583 -21.468,-38.583 -24.455,-54.346c47.109,-40.394 91.306,-64.437 154.167,-63.021Z" style="fill:#6a9997;fill-rule:nonzero;"/><path d="M4020.833,1883.333l37.5,0l0,345.833l-41.667,0c-0.096,-44.476 -0.17,-88.952 -0.216,-133.428c-0.022,-20.65 -0.051,-41.299 -0.098,-61.949c-0.045,-19.911 -0.07,-39.822 -0.081,-59.733c-0.008,-7.614 -0.023,-15.228 -0.045,-22.842c-0.03,-10.626 -0.034,-21.252 -0.032,-31.879c-0.015,-3.18 -0.03,-6.36 -0.045,-9.636c0.043,-21.726 0.043,-21.726 4.685,-26.368Z" style="fill:#505f64;fill-rule:nonzero;"/><path d="M3641.667,1162.5c18.663,10.204 33.855,21.41 41.667,41.667c3.039,19.118 2.03,36.368 -7.031,53.646c-12.153,16.423 -22.19,24.184 -42.562,27.474c-38.357,0.395 -38.357,0.395 -53.011,-11.328c-17.022,-19.71 -20.157,-33.811 -19.515,-59.505c2.282,-18.254 10.29,-29.079 24.382,-40.495c17.392,-11.462 35.424,-16.708 56.071,-11.458Z" style="fill:#689796;fill-rule:nonzero;"/><path d="M3033.333,554.167c2.75,1.375 5.5,2.75 8.333,4.167l0,12.5l-8.333,0c-0.516,4.555 -1.031,9.109 -1.562,13.802c-2.604,15.365 -2.604,15.365 -10.938,27.865c2.484,-20.287 6.541,-38.866 12.5,-58.333Z" style="fill:#89bfba;fill-opacity:0.98;fill-rule:nonzero;"/></svg>