<?xml version="1.0" encoding="UTF-8" standalone="no"?><!DOCTYPE svg PUBLIC "-//W3C//DTD SVG 1.1//EN" "http://www.w3.org/Graphics/SVG/1.1/DTD/svg11.dtd"><svg width="100%" height="100%" viewBox="0 0 5867 3067" version="1.1" xmlns="http://www.w3.org/2000/svg" xmlns:xlink="http://www.w3.org/1999/xlink" xml:space="preserve" xmlns:serif="http://www.serif.com/" style="fill-rule:evenodd;clip-rule:evenodd;stroke-linejoin:round;stroke-miterlimit:2;"><path d="M2049.479,924.479c19.832,11.36 38.735,24.296 57.635,37.134c22.602,15.331 45.665,29.811 68.927,44.116c60.858,37.456 121.15,75.784 181.42,114.178c21.917,13.958 43.86,27.875 65.84,41.734c9.806,6.185 19.604,12.383 29.401,18.583c11.532,7.295 23.098,14.53 34.701,21.712c81.545,50.817 81.545,50.817 91.764,85.563c3.62,30.119 1.241,54.313 -16.667,79.167c-24.342,25.331 -53.919,42.783 -83.854,60.677c-9.704,5.872 -19.394,11.767 -29.085,17.66c-2.427,1.471 -4.854,2.943 -7.355,4.459c-23.216,14.095 -46.152,28.608 -69.028,43.246c-3.744,2.393 -7.489,4.786 -11.346,7.252c-7.356,4.702 -14.712,9.406 -22.066,14.11c-16.688,10.649 -33.433,21.207 -50.181,31.763c-24.695,15.565 -49.335,31.215 -73.935,46.931c-41.076,26.223 -82.198,52.352 -124.067,77.296c-5.347,3.202 -10.674,6.439 -15.975,9.717c-30.107,18.581 -56.386,32.777 -92.273,24.39c-28.875,-11.664 -45.749,-25.851 -58.333,-54.167c-2.222,-3.741 -2.222,-3.741 -4.489,-7.557c-5.158,-12.224 -4.906,-22.334 -4.93,-35.594c-0.03,-5.45 -0.059,-10.9 -0.089,-16.515c0.01,-6.033 0.02,-12.065 0.031,-18.098c-0.018,-6.359 -0.04,-12.718 -0.065,-19.077c-0.056,-17.27 -0.058,-34.539 -0.048,-51.809c0.004,-14.423 -0.016,-28.847 -0.036,-43.27c-0.046,-34.037 -0.048,-68.074 -0.023,-102.112c0.025,-35.091 -0.026,-70.18 -0.115,-105.271c-0.073,-30.142 -0.098,-60.284 -0.085,-90.426c0.008,-17.996 -0.003,-35.991 -0.061,-53.986c-0.052,-16.933 -0.044,-33.864 0.01,-50.797c0.01,-6.203 -0.001,-12.406 -0.036,-18.608c-0.213,-41.434 0.57,-72.509 30.769,-103.547c29.821,-23.476 69.368,-24.934 103.646,-8.854Z" style="fill:#fdfdfd;fill-rule:nonzero;"/><path d="M3033.333,554.167c12.181,10.638 18.506,22.631 25.928,36.898c2.592,4.934 5.184,9.868 7.777,14.801c1.342,2.573 2.684,5.146 4.067,7.797c24.391,46.671 49.397,92.655 78.895,136.338c1.711,2.541 3.421,5.081 5.184,7.699c22.452,33.04 46.663,63.089 73.983,92.301c4.974,5.619 9.923,11.261 14.844,16.927c2.315,2.637 4.63,5.274 7.015,7.992c5.319,6.125 10.574,12.307 15.788,18.522c2.874,3.368 5.747,6.735 8.708,10.205c3.883,4.625 3.883,4.625 7.845,9.342c18.302,17.298 42.235,18.934 66.113,23.21c108.637,20.85 216.148,60.341 313.021,113.802c2.561,1.409 5.121,2.818 7.76,4.27c63.085,35.213 119.582,78.862 171.407,129.063c2.24,2.132 4.479,4.265 6.787,6.462c31.867,30.388 59.898,61.28 84.88,97.705c3.037,4.173 3.037,4.173 6.136,8.431c10.442,15.645 11.139,26.668 8.407,44.965c-3.498,15.59 -9.896,29.435 -16.886,43.74c-1.491,3.089 -2.982,6.177 -4.519,9.36c-69.146,139.306 -216.759,189.997 -353.849,240.331c-12.827,4.896 -25.008,10.48 -37.264,16.662c-63.706,30.983 -123.42,33.442 -193.051,32.531c-15.836,-0.165 -31.671,-0.107 -47.508,-0.079c-27.326,0.02 -54.649,-0.096 -81.974,-0.309c-39.505,-0.307 -79.009,-0.403 -118.516,-0.45c-64.122,-0.082 -128.243,-0.33 -192.364,-0.686c-62.225,-0.345 -124.449,-0.61 -186.674,-0.769c-3.847,-0.01 -7.693,-0.02 -11.656,-0.03c-19.3,-0.049 -38.601,-0.096 -57.901,-0.143c-159.684,-0.388 -319.365,-1.047 -479.047,-1.887c22.673,-22.98 22.673,-22.98 36.051,-30.843c2.844,-1.7 5.688,-3.4 8.618,-5.151c3.048,-1.786 6.096,-3.572 9.237,-5.412c6.727,-4.023 13.449,-8.054 20.166,-12.093c5.308,-3.189 5.308,-3.189 10.724,-6.443c19.147,-11.665 37.994,-23.796 56.871,-35.891c15.271,-9.734 30.552,-19.45 45.833,-29.167c5.53,-3.528 5.53,-3.528 11.171,-7.127c10.398,-6.611 20.83,-13.162 31.276,-19.696c3.118,-1.995 6.236,-3.991 9.448,-6.047c7.505,-4.654 15.286,-8.856 23.104,-12.964c13.939,4.646 16.009,7.554 24.74,18.75c43.205,50.861 113.584,93.413 179.427,106.25c10.463,0.381 20.807,0.544 31.268,0.501c3.162,0.004 6.324,0.007 9.582,0.011c10.601,0.007 21.202,-0.016 31.802,-0.039c7.597,-0.001 15.194,-0.001 22.79,0.002c20.634,0.001 41.267,-0.023 61.901,-0.052c21.56,-0.026 43.119,-0.028 64.679,-0.033c40.831,-0.013 81.662,-0.047 122.493,-0.089c46.483,-0.047 92.966,-0.069 139.448,-0.09c95.623,-0.044 191.246,-0.117 286.869,-0.21c-9.988,-8.699 -19.985,-17.389 -29.983,-26.076c-2.811,-2.448 -5.622,-4.897 -8.518,-7.42c-19.793,-17.188 -39.942,-33.665 -60.978,-49.317c-8.252,-6.213 -16.501,-12.424 -24.68,-18.733c-9.1,-6.917 -9.1,-6.917 -18.905,-12.875c-25.792,-17.161 -25.792,-17.161 -31.055,-32.915c-1.047,-11.518 -0.942,-22.477 -0.376,-34.028c0.08,-6.181 0.08,-6.181 0.161,-12.486c0.209,-13.085 0.679,-26.145 1.158,-39.223c0.188,-8.9 0.359,-17.8 0.513,-26.701c0.412,-21.751 1.059,-43.485 1.831,-65.226l41.667,0c-0.223,4.765 -0.446,9.53 -0.675,14.44c-8.909,91.555 -8.909,91.555 18.498,174.183c13.504,12.013 28.49,20.584 44.818,28.221c11.217,5.462 20.099,12.83 29.547,20.917c3.153,2.514 6.306,5.027 9.554,7.617c14.083,11.505 27.931,23.27 41.748,35.091c2.517,2.151 5.034,4.303 7.627,6.52c19.228,16.536 19.228,16.536 25.186,24.375c7.073,6.521 7.073,6.521 18.348,4.684c15.387,-3.99 30.221,-8.931 45.095,-14.486c2.977,-1.095 5.955,-2.19 9.022,-3.318c9.623,-3.553 19.231,-7.145 28.836,-10.745c3.278,-1.223 6.557,-2.445 9.934,-3.705c47.863,-17.885 95.146,-36.521 141.195,-58.74c8.901,-4.286 17.854,-8.447 26.817,-12.604c52.363,-24.699 92.889,-52.864 127.783,-99.951c-3.498,0.566 -6.997,1.131 -10.601,1.714c-4.908,0.793 -9.815,1.586 -14.871,2.404c-5.425,0.877 -10.85,1.754 -16.439,2.658c-11.875,1.918 -23.751,3.826 -35.628,5.727c-37.849,6.06 -37.849,6.06 -75.635,12.497c-65.461,11.397 -115.436,13.47 -175.651,-16.681c-9.061,-4.337 -18.223,-8.136 -27.555,-11.851c-3.073,-1.243 -6.145,-2.486 -9.311,-3.767c-5.911,-2.377 -11.843,-4.705 -17.796,-6.976c-8.033,-3.336 -8.033,-3.336 -20.68,-10.725c-5.326,-13.503 -4.857,-18.761 -0.26,-32.552c1.461,-3.008 2.922,-6.016 4.427,-9.115c16.899,2.624 30.484,8.117 45.866,15.511c4.802,2.242 9.604,4.485 14.551,6.795c10.007,4.697 19.964,9.473 29.915,14.29c4.834,2.237 9.668,4.474 14.648,6.779c4.341,2.068 8.681,4.136 13.153,6.267c37.18,11.065 76.239,3.225 113.849,-2.621c4.87,-0.73 9.74,-1.46 14.757,-2.212c15.415,-2.318 30.822,-4.683 46.229,-7.049c10.419,-1.574 20.838,-3.144 31.258,-4.712c34.664,-5.23 34.664,-5.23 69.31,-10.576c8.612,-1.328 17.238,-2.563 25.868,-3.768c10.178,-1.117 10.178,-1.117 15.995,-9.004c1.942,-4.286 1.942,-4.286 3.923,-8.659c1.37,-2.814 2.739,-5.629 4.15,-8.529c3.05,-11.864 1.975,-18.35 -1.807,-30.013c-34.072,-55.034 -82.387,-102.504 -133.333,-141.667c-4.05,-3.282 -8.1,-6.563 -12.272,-9.945c-125.147,-99.898 -282.114,-159.044 -438.249,-189.274c-28.682,-5.736 -46.547,-12.029 -66.146,-34.115c-2.374,-2.643 -4.748,-5.285 -7.194,-8.008c-4.967,-5.646 -9.882,-11.338 -14.746,-17.074c-6.613,-7.551 -13.48,-14.384 -20.768,-21.273c-62.15,-61.458 -110.375,-140.576 -153.125,-216.146c-6.25,124.018 42.108,230.993 123.958,323.438c4.463,4.736 8.954,9.448 13.542,14.062c-7.812,19.792 -7.812,19.792 -12.5,29.167c-13.307,-2.645 -22.907,-7.307 -34.359,-14.518c-3.445,-2.152 -6.89,-4.304 -10.44,-6.522c-3.693,-2.338 -7.386,-4.676 -11.191,-7.085c-7.898,-4.955 -15.798,-9.908 -23.698,-14.86c-6.075,-3.82 -6.075,-3.82 -12.272,-7.717c-11.75,-7.346 -23.552,-14.596 -35.384,-21.808c-42.102,-25.692 -83.221,-52.015 -122.656,-81.657c-2.362,-1.767 -4.724,-3.534 -7.157,-5.355c-27.695,-20.79 -54.741,-42.12 -80.343,-65.479c27.461,93.69 85.181,149.976 161.719,206.771c6.574,4.898 6.574,4.898 13.281,9.896l0,4.167c-56.092,5.701 -56.092,5.701 -79.98,-7.178c-11.527,-9.573 -22.019,-19.64 -32.52,-30.322c-7.174,-6.199 -14.377,-12.365 -21.615,-18.49c-9.294,-8.057 -9.294,-8.057 -15.885,-14.844l0,-8.333c-126.696,8.435 -250.349,61.772 -359.212,125.049c-3.742,2.146 -7.485,4.292 -11.34,6.503c-7.329,4.226 -14.615,8.528 -21.851,12.913c-24.86,14.34 -24.86,14.34 -41.614,12.127c-13.824,-7.711 -26.994,-16.003 -39.941,-25.081c-23.065,-15.765 -46.416,-30.838 -70.312,-45.312c-3.118,-1.891 -6.236,-3.783 -9.448,-5.731c-6.506,-3.945 -13.012,-7.888 -19.519,-11.831c-49.944,-30.357 -99.501,-61.355 -148.897,-92.594c-4.032,-2.537 -8.065,-5.074 -12.219,-7.687c-3.686,-2.34 -7.372,-4.68 -11.169,-7.091c-3.283,-2.077 -6.567,-4.155 -9.95,-6.295c-2.319,-1.64 -4.637,-3.279 -7.026,-4.968l0,-4.167l720.833,0c-8.25,-20.625 -16.5,-41.25 -25,-62.5c-12.278,-44.032 -17.341,-83.533 -16.667,-129.167c19.407,13.68 37.287,28.368 54.688,44.531c24.143,22.242 49.588,42.399 75.608,62.388c6.783,5.254 13.482,10.614 20.176,15.981c42.337,33.622 88.26,65.956 137.028,89.6c-3.319,-6.566 -3.319,-6.566 -6.706,-13.265c-7.602,-15.077 -15.133,-30.187 -22.622,-45.321c-3.138,-6.331 -6.308,-12.645 -9.491,-18.953c-20.31,-42.372 -26.017,-87.913 -25.765,-134.44c0.006,-4.799 0.011,-9.597 0.017,-14.542c0.832,-47.573 5.389,-105.126 27.066,-148.479Z" style="fill:#7cafab;fill-rule:nonzero;"/><path d="M2514.844,1911.979c4.873,4.229 9.652,8.569 14.323,13.021c2.546,2.181 5.092,4.361 7.715,6.608c31.041,28.135 47.934,66.64 51.53,108.057c1.652,48.118 -11.216,87.63 -38.411,127.002c-2.406,3.695 -4.812,7.391 -7.292,11.198c-36.188,37.194 -78.985,55.513 -130.463,57.429c-34.641,0.409 -64.357,-2.385 -95.579,-18.627c-5.438,-2.723 -5.438,-2.723 -10.986,-5.501c-43.249,-23.661 -66.296,-57.7 -84.847,-102.832c-13.071,-49.294 -4.804,-98.715 19.792,-142.448c28.162,-43.604 69.762,-71.83 120.199,-85.482c52.678,-6.51 109.741,-0.285 154.02,31.576Z" style="fill:#45565c;fill-rule:nonzero;"/><path d="M2049.479,924.479c19.832,11.36 38.735,24.296 57.635,37.134c22.602,15.331 45.665,29.811 68.927,44.116c60.858,37.456 121.15,75.784 181.42,114.178c21.917,13.958 43.86,27.875 65.84,41.734c9.806,6.185 19.604,12.383 29.401,18.583c11.532,7.295 23.098,14.53 34.701,21.712c81.545,50.817 81.545,50.817 91.764,85.563c3.62,30.119 1.241,54.313 -16.667,79.167c-24.342,25.331 -53.919,42.783 -83.854,60.677c-9.704,5.872 -19.394,11.767 -29.085,17.66c-2.427,1.471 -4.854,2.943 -7.355,4.459c-23.216,14.095 -46.152,28.608 -69.028,43.246c-3.744,2.393 -7.489,4.786 -11.346,7.252c-7.356,4.702 -14.712,9.406 -22.066,14.11c-16.688,10.649 -33.433,21.207 -50.181,31.763c-24.695,15.565 -49.335,31.215 -73.935,46.931c-41.076,26.223 -82.198,52.352 -124.067,77.296c-5.347,3.202 -10.674,6.439 -15.975,9.717c-30.107,18.581 -56.386,32.777 -92.273,24.39c-28.875,-11.664 -45.749,-25.851 -58.333,-54.167c-2.222,-3.741 -2.222,-3.741 -4.489,-7.557c-5.158,-12.224 -4.906,-22.334 -4.93,-35.594c-0.03,-5.45 -0.059,-10.9 -0.089,-16.515c0.01,-6.033 0.02,-12.065 0.031,-18.098c-0.018,-6.359 -0.04,-12.718 -0.065,-19.077c-0.056,-17.27 -0.058,-34.539 -0.048,-51.809c0.004,-14.423 -0.016,-28.847 -0.036,-43.27c-0.046,-34.037 -0.048,-68.074 -0.023,-102.112c0.025,-35.091 -0.026,-70.18 -0.115,-105.271c-0.073,-30.142 -0.098,-60.284 -0.085,-90.426c0.008,-17.996 -0.003,-35.991 -0.061,-53.986c-0.052,-16.933 -0.044,-33.864 0.01,-50.797c0.01,-6.203 -0.001,-12.406 -0.036,-18.608c-0.213,-41.434 0.57,-72.509 30.769,-103.547c29.821,-23.476 69.368,-24.934 103.646,-8.854Zm-80.729,41.406c-10.761,15.694 -10.952,28.446 -11.002,46.993c-0.024,5.31 -0.048,10.62 -0.072,16.091c-0.005,5.897 -0.01,11.794 -0.014,17.691c-0.019,6.201 -0.04,12.402 -0.063,18.603c-0.055,16.856 -0.082,33.713 -0.1,50.569c-0.012,10.532 -0.029,21.063 -0.048,31.595c-0.057,32.953 -0.097,65.905 -0.113,98.858c-0.019,38.037 -0.092,76.072 -0.213,114.109c-0.09,29.402 -0.132,58.805 -0.138,88.207c-0.004,17.56 -0.029,35.12 -0.103,52.679c-0.069,16.522 -0.078,33.043 -0.041,49.565c0.003,6.057 -0.015,12.114 -0.056,18.17c-0.053,8.283 -0.021,16.567 0.015,24.85c-0.006,4.631 -0.012,9.262 -0.019,14.034c2.185,18.235 8.811,32.111 21.081,45.745c15.097,7.344 26.853,8.032 42.969,4.688c49.437,-18.64 93.482,-50.991 137.555,-79.504c20.948,-13.459 42.09,-26.606 63.226,-39.766c32.827,-20.47 65.591,-41.032 98.276,-61.728c22.493,-14.228 45.056,-28.342 67.646,-42.415c16.899,-10.537 33.772,-21.115 50.643,-31.697c11.088,-6.931 22.21,-13.804 33.337,-20.671c6.371,-3.99 12.741,-7.983 19.108,-11.979c2.853,-1.735 5.705,-3.47 8.645,-5.258c17.456,-11.067 28.135,-21.744 38.23,-40.315c2.882,-17.93 2.296,-25.793 -7.975,-40.885c-15.251,-17.381 -34.699,-28.415 -54.264,-40.365c-8.242,-5.137 -16.483,-10.275 -24.723,-15.413c-4.221,-2.612 -8.442,-5.225 -12.791,-7.916c-20.327,-12.631 -40.49,-25.515 -60.663,-38.389c-7.693,-4.894 -15.386,-9.788 -23.079,-14.681c-16.479,-10.497 -32.909,-21.066 -49.316,-31.673c-29.989,-19.325 -60.28,-38.159 -90.555,-57.031c-29.379,-18.332 -58.64,-36.838 -87.831,-55.469c-37.403,-23.852 -37.403,-23.852 -75,-47.396c-4.055,-2.519 -8.11,-5.038 -12.288,-7.633c-21.566,-12.369 -49.317,-17.449 -70.264,-2.262Z" style="fill:#5d7f80;fill-rule:nonzero;"/><path d="M3033.333,554.167c12.181,10.638 18.506,22.631 25.928,36.898c2.592,4.934 5.184,9.868 7.777,14.801c2.013,3.86 2.013,3.86 4.067,7.797c24.391,46.671 49.397,92.655 78.895,136.338c2.566,3.811 2.566,3.811 5.184,7.699c22.452,33.04 46.663,63.089 73.983,92.301c4.974,5.619 9.923,11.261 14.844,16.927c2.315,2.637 4.63,5.274 7.015,7.992c5.319,6.125 10.574,12.307 15.788,18.522c4.31,5.052 4.31,5.052 8.708,10.205c2.589,3.083 5.178,6.166 7.845,9.342c18.302,17.298 42.235,18.934 66.113,23.21c108.637,20.85 216.148,60.341 313.021,113.802c2.561,1.409 5.121,2.818 7.76,4.27c50.946,28.437 101.839,61.649 142.24,104.063c-3.223,2.578 -3.223,2.578 -6.51,5.208c-6.999,6.771 -6.999,6.771 -5.208,15.365c3.438,8.727 7.29,16.993 11.719,25.26c-16.242,0 -18.279,-4.415 -29.688,-15.625c-125.407,-115.929 -301.712,-180.882 -466.748,-212.793c-28.656,-5.698 -46.493,-12.027 -66.064,-34.082c-2.374,-2.643 -4.748,-5.285 -7.194,-8.008c-4.967,-5.646 -9.882,-11.338 -14.746,-17.074c-6.613,-7.551 -13.48,-14.384 -20.768,-21.273c-62.15,-61.458 -110.375,-140.576 -153.125,-216.146c-6.25,124.018 42.108,230.993 123.958,323.438c4.463,4.736 8.954,9.448 13.542,14.062c-7.812,19.792 -7.812,19.792 -12.5,29.167c-13.307,-2.645 -22.907,-7.307 -34.359,-14.518c-3.449,-2.154 -6.898,-4.309 -10.451,-6.529c-5.534,-3.504 -5.534,-3.504 -11.18,-7.078c-7.839,-4.917 -15.678,-9.832 -23.519,-14.746c-6.064,-3.813 -6.064,-3.813 -12.25,-7.703c-12.356,-7.727 -24.764,-15.359 -37.197,-22.961c-5.946,-3.644 -5.946,-3.644 -12.013,-7.361c-7.634,-4.674 -15.275,-9.338 -22.923,-13.989c-5.193,-3.192 -5.193,-3.192 -10.491,-6.449c-3.043,-1.859 -6.087,-3.718 -9.222,-5.634c-7.84,-5.379 -14.098,-11.088 -20.563,-18.032l8.333,0c1.375,-4.125 2.75,-8.25 4.167,-12.5c4.125,-2.062 4.125,-2.062 8.333,-4.167c1.375,-4.125 2.75,-8.25 4.167,-12.5c16.846,6.188 31.714,14.287 47.135,23.438c4.453,2.632 8.905,5.264 13.493,7.975c3.368,2.009 6.735,4.018 10.205,6.087c-3.319,-6.566 -3.319,-6.566 -6.706,-13.265c-7.602,-15.077 -15.133,-30.187 -22.622,-45.321c-3.138,-6.331 -6.308,-12.645 -9.491,-18.953c-20.31,-42.372 -26.017,-87.913 -25.765,-134.44c0.009,-7.198 0.009,-7.198 0.017,-14.542c0.832,-47.573 5.389,-105.126 27.066,-148.479Z" style="fill:#7db0ac;fill-rule:nonzero;"/><path d="M1562.5,1883.333l66.667,0c23.082,45.259 44.771,91.026 66.043,137.162c11.888,25.746 23.902,51.42 36.252,76.949c1.211,2.503 2.421,5.005 3.668,7.584c5.764,11.9 11.552,23.789 17.363,35.667c14.15,29.1 26.97,58.5 39.173,88.471l-75,0c-11,-24.75 -22,-49.5 -33.333,-75c-59.125,-1.375 -118.25,-2.75 -179.167,-4.167c-1.375,6.875 -2.75,13.75 -4.167,20.833c-4.087,10.291 -8.275,20.361 -12.76,30.469c-6.059,13.793 -6.059,13.793 -12.24,27.865l-70.833,0c6.57,-19.709 13.948,-37.825 22.884,-56.445c1.426,-3.002 2.851,-6.004 4.32,-9.096c3.053,-6.425 6.112,-12.847 9.176,-19.266c8.064,-16.893 16.081,-33.809 24.102,-50.723c1.602,-3.375 3.203,-6.749 4.853,-10.226c14.006,-29.538 27.779,-59.178 41.436,-88.879c1.996,-4.341 3.992,-8.681 6.049,-13.153c3.734,-8.123 7.467,-16.246 11.2,-24.369c11.334,-24.607 22.829,-49.139 34.314,-73.676Z" style="fill:#45565c;fill-rule:nonzero;"/><path d="M1837.5,1887.5c25.005,-4.001 50.39,-7.624 75,0c20.075,14.753 32.466,36.992 44.92,58.15c6.967,11.68 14.809,22.506 22.788,33.516c3.832,5.547 7.657,11.099 11.458,16.667c16.802,-5.601 22.435,-16.713 32.031,-30.729c1.869,-2.603 3.738,-5.206 5.664,-7.888c8.86,-12.403 16.782,-24.465 23.975,-37.946c7.72,-13.63 13.221,-22.37 25.83,-31.771c24.691,-5.398 50.103,-2.633 75,0c-10.591,19.281 -21.756,36.581 -35.417,53.906c-3.643,4.68 -7.283,9.362 -10.921,14.046c-1.922,2.465 -3.844,4.929 -5.825,7.469c-11.23,14.399 -22.415,28.829 -33.514,43.329c-2.186,2.793 -4.372,5.585 -6.624,8.463c-15.633,19.671 -15.633,19.671 -20.199,43.621c6.276,10.552 6.276,10.552 15.885,20.573c15.03,17.356 28.981,34.867 42.188,53.646c2.551,3.623 2.551,3.623 5.154,7.319c3.496,4.97 6.99,9.942 10.481,14.916c5.721,8.083 11.527,16.098 17.356,24.103c1.931,2.662 3.862,5.325 5.852,8.068c3.726,5.132 7.466,10.255 11.22,15.367c12.696,17.574 12.696,17.574 12.696,26.842c-11.914,1.021 -23.74,1.758 -35.677,2.344c-3.333,0.314 -6.666,0.628 -10.099,0.952c-15.453,0.568 -25.238,0.239 -37.1,-10.281c-7.737,-9.841 -14.527,-19.982 -21.29,-30.515c-5.178,-7.217 -10.381,-14.417 -15.609,-21.598c-5.137,-7.29 -10.264,-14.587 -15.381,-21.891c-2.651,-3.736 -5.301,-7.471 -8.032,-11.32c-2.5,-3.564 -5,-7.127 -7.576,-10.799c-2.258,-3.209 -4.516,-6.418 -6.843,-9.724c-4.892,-8.001 -4.892,-8.001 -4.892,-16.334c-18.684,17.362 -32.975,36.758 -47.656,57.552c-6.861,9.642 -13.729,19.274 -20.691,28.843c-4.404,6.247 -8.597,12.648 -12.557,19.185c-14.147,22.154 -14.147,22.154 -28.083,26.187c-10.236,0.679 -19.855,0.33 -30.075,-0.518c-3.464,-0.15 -6.929,-0.301 -10.498,-0.456c-8.488,-0.39 -16.966,-0.988 -25.439,-1.628c5.749,-12.253 12.396,-22.836 20.443,-33.708c2.393,-3.243 4.787,-6.487 7.253,-9.829c2.548,-3.422 5.096,-6.844 7.721,-10.37c2.607,-3.519 5.214,-7.037 7.9,-10.663c55.964,-75.349 55.964,-75.349 74.75,-96.271c7.744,-9.105 7.744,-9.105 6.852,-18.311c-5.353,-10.941 -11.958,-19.819 -19.45,-29.443c-3.335,-4.345 -6.671,-8.69 -10.107,-13.167c-1.883,-2.45 -3.766,-4.9 -5.707,-7.424c-12.552,-16.511 -24.774,-33.266 -37.05,-49.982c-4.98,-6.771 -9.96,-13.542 -14.941,-20.312c-2.14,-2.911 -4.279,-5.822 -6.484,-8.822c-4.304,-5.828 -8.721,-11.574 -13.22,-17.253c-5.459,-7.78 -5.459,-7.78 -5.459,-16.113Z" style="fill:#45565c;fill-rule:nonzero;"/><path d="M4270.833,1887.5l41.667,0c28.179,60.073 55.482,120.375 81.43,181.448c16.426,38.657 33.249,77.126 50.285,115.517c1.796,4.058 3.593,8.115 5.443,12.296c2.37,5.334 2.37,5.334 4.788,10.776c3.887,9.13 3.887,9.13 8.054,21.63l-45.833,0c-5.574,-13.013 -11.126,-26.035 -16.667,-39.062c-1.59,-3.706 -3.18,-7.412 -4.818,-11.23c-1.504,-3.545 -3.008,-7.09 -4.557,-10.742c-1.396,-3.273 -2.793,-6.546 -4.232,-9.918c-3.06,-8.213 -3.06,-8.213 -3.06,-16.547l-183.333,0c-4.125,12.375 -8.25,24.75 -12.5,37.5c-3.624,9.158 -7.343,18.28 -11.198,27.344c-1.821,4.302 -3.642,8.604 -5.518,13.037c-1.359,3.174 -2.718,6.349 -4.118,9.619l-41.667,0c8.993,-28.557 20.017,-55.524 32.292,-82.812c21.319,-47.877 42.046,-95.988 62.557,-144.216c16.383,-38.518 33.177,-76.752 50.984,-114.639Z" style="fill:#48585d;fill-rule:nonzero;"/><path d="M2079.167,1145.833c15.534,6.214 26.494,11.402 40.104,20.312c4.023,2.605 8.046,5.21 12.191,7.894c2.265,1.47 4.529,2.939 6.862,4.454c14.669,9.455 29.461,18.716 44.228,28.017c30.59,19.304 61.142,38.667 91.667,58.073c3.853,2.447 7.706,4.894 11.675,7.415c18.729,11.916 37.369,23.924 55.773,36.335c-5.91,17.731 -18.914,23.114 -34.115,32.552c-3.132,1.985 -6.265,3.971 -9.492,6.016c-6.835,4.329 -13.68,8.643 -20.533,12.944c-14.84,9.322 -29.623,18.732 -44.405,28.144c-7.688,4.893 -15.381,9.778 -23.079,14.655c-19.768,12.54 -39.439,25.203 -58.968,38.111c-3.814,2.514 -7.629,5.029 -11.559,7.619c-7.276,4.808 -14.537,9.64 -21.779,14.498c-3.248,2.144 -6.496,4.287 -9.842,6.496c-2.842,1.898 -5.685,3.796 -8.613,5.752c-7.614,4.047 -7.614,4.047 -20.114,4.047l0,-333.333Z" style="fill:#5f8787;fill-rule:nonzero;"/><path d="M2466.667,1954.167c28.047,17.529 43.172,43.833 52.555,75.212c7.183,36.205 -1.211,70.496 -21.484,101.188c-19.089,23.501 -40.247,34.992 -68.571,44.434c-43.647,3.105 -73.343,0.187 -107.292,-27.865c-27.275,-25.535 -38.724,-53.889 -40.365,-90.885c0.322,-32.929 12.491,-60.09 33.659,-85.189c43.285,-40.251 100.177,-45.406 151.497,-16.895Z" style="fill:#fbfcfb;fill-rule:nonzero;"/><path d="M2850,1887.5l37.5,0c1.292,2.292 2.583,4.584 3.914,6.946c6.331,11.228 12.666,22.454 19.002,33.679c2.381,4.219 4.763,8.437 7.216,12.784c13.943,24.668 27.947,49.3 42.035,73.886c2.244,3.918 2.244,3.918 4.533,7.914c7.347,12.825 14.703,25.646 22.07,38.46c2.694,4.698 5.387,9.397 8.162,14.237c2.383,4.147 4.766,8.294 7.22,12.566c4.696,8.456 9.099,17.079 13.277,25.804c4.735,11.653 4.735,11.653 14.235,11.223c1.137,-3.661 2.275,-3.156 3.446,-6.929c4.563,-12.984 9.866,-24.303 16.41,-36.382c3.463,-6.418 3.463,-6.418 6.996,-12.965c3.724,-6.819 3.724,-6.819 7.523,-13.777c2.555,-4.71 5.11,-9.42 7.742,-14.273c18.803,-34.606 37.894,-69.052 57.101,-103.435c3.777,-6.762 3.777,-6.762 7.629,-13.661c2.322,-4.134 4.643,-8.268 7.035,-12.527c2.051,-3.653 4.102,-7.305 6.214,-11.069c4.902,-8.316 4.902,-8.316 9.069,-12.483l33.333,0l0,341.667l-37.5,0c-1.375,-83.875 -2.75,-167.75 -4.167,-254.167c-19.25,35.75 -38.5,71.5 -58.333,108.333c-10.233,18.929 -20.469,37.856 -30.729,56.771c-2.32,4.281 -4.641,8.562 -7.031,12.972c-5.467,10.086 -10.936,20.172 -16.406,30.257l-25,0c-23.7,-41.143 -46.937,-82.537 -70.046,-124.014c-3.556,-6.369 -3.556,-6.369 -7.184,-12.867c-2.079,-3.731 -4.158,-7.462 -6.3,-11.306c-12.248,-21.545 -24.816,-42.906 -37.304,-64.313c-1.375,85.25 -2.75,170.5 -4.167,258.333l-37.5,0l0,-341.667Z" style="fill:#47575d;fill-rule:nonzero;"/><path d="M3633.333,1887.5c202.933,0 202.933,0 253.76,49.365c38.292,40.721 44.496,85.429 43.49,139.551c-2.073,42.25 -21.061,81.739 -51.416,111.084c-72.036,56.663 -157.842,41.667 -245.833,41.667l0,-341.667Zm41.667,33.333l0,270.833c104.897,8.105 104.897,8.105 185.417,-38.802c28.967,-38.452 35.663,-80.747 31.25,-127.865c-10.114,-35.317 -25.148,-65.08 -57.552,-84.115c-5.068,-3.053 -5.068,-3.053 -10.238,-6.169c-49.635,-24.214 -88.557,-13.883 -148.877,-13.883Z" style="fill:#4a595d;fill-rule:nonzero;"/><path d="M3308.333,1883.333l225,0l0,37.5l-183.333,0l0,116.667l162.5,0l0,33.333l-162.5,0l0,120.833l191.667,0l0,37.5l-233.333,0l0,-345.833Z" style="fill:#415257;fill-rule:nonzero;"/><path d="M2254.167,950l445.833,0c-8.642,8.642 -13.064,10.626 -24.333,14.535c-3.345,1.198 -6.689,2.397 -10.135,3.632c-3.665,1.31 -7.33,2.62 -11.105,3.969c-37.419,13.805 -73.455,29.815 -109.375,47.135c-4.67,2.241 -9.34,4.483 -14.151,6.792c-25.046,12.221 -48.837,25.17 -72.036,40.642c-8.865,4.128 -8.865,4.128 -17.443,3.2c-14.172,-5.675 -27.059,-13.646 -40.12,-21.468c-3.096,-1.838 -6.193,-3.677 -9.383,-5.57c-31.395,-18.787 -62.115,-38.584 -92.666,-58.708c-6.771,-4.456 -13.566,-8.877 -20.363,-13.293c-3.432,-2.245 -6.864,-4.49 -10.4,-6.803c-2.841,-1.858 -5.683,-3.717 -8.61,-5.632c-1.885,-1.407 -3.771,-2.814 -5.713,-4.264l0,-4.167Z" style="fill:#fafcfb;fill-rule:nonzero;"/><path d="M2716.667,1400l229.167,0c-5.907,17.722 -10.604,30.248 -19.645,45.85c-2.173,3.773 -4.345,7.546 -6.584,11.434c-2.259,3.87 -4.517,7.74 -6.844,11.727c-2.242,3.886 -4.485,7.772 -6.795,11.776c-10.177,17.605 -20.475,35.126 -30.965,52.547c-51.768,-1.954 -90.58,-34.495 -125,-70.833c-16.389,-20.42 -24.954,-37.362 -33.333,-62.5Z" style="fill:#547476;fill-rule:nonzero;"/><path d="M3008.333,1341.667c16.977,5.659 18.733,13.204 27.246,28.743c2.04,3.692 2.04,3.692 4.12,7.459c2.868,5.209 5.718,10.428 8.551,15.657c4.332,7.996 8.715,15.961 13.11,23.922c21.243,38.696 21.243,38.696 26.139,53.385c-33.191,36.403 -83.299,68.289 -133.333,70.833c-19.45,0.258 -38.883,0.243 -58.333,0c9.84,-26.114 23.937,-49.904 37.5,-74.219c1.392,-2.504 2.784,-5.008 4.218,-7.588c22.363,-40.194 45.688,-79.637 70.782,-118.193Z" style="fill:#537274;fill-rule:nonzero;"/><path d="M2975,1091.667c45.429,2.753 91.208,38.5 121.403,69.906c15.121,18.038 32.764,39.233 32.764,63.428l-225,0c4.004,-16.016 9.259,-27.25 17.041,-41.699c2.581,-4.796 5.162,-9.593 7.821,-14.535c2.022,-3.721 2.022,-3.721 4.084,-7.517c4.122,-7.594 8.208,-15.206 12.289,-22.821c20.181,-37.344 20.181,-37.344 29.598,-46.761Z" style="fill:#6b9996;fill-rule:nonzero;"/><path d="M2991.667,1245.833c20.616,-0.309 41.231,-0.536 61.849,-0.687c7.017,-0.063 14.033,-0.148 21.049,-0.256c10.074,-0.151 20.146,-0.222 30.221,-0.278c3.147,-0.065 6.294,-0.129 9.536,-0.196c8.846,-0.003 8.846,-0.003 23.179,1.416c19.227,28.841 15.405,71.067 10.726,104.248c-7.567,34.68 -23.159,64.76 -39.893,95.752c-16.423,-5.474 -17.768,-11.516 -25.928,-26.546c-2.57,-4.684 -5.139,-9.368 -7.787,-14.194c-2.738,-5.083 -5.476,-10.166 -8.212,-15.25c-2.796,-5.131 -5.596,-10.261 -8.399,-15.388c-5.605,-10.258 -11.192,-20.526 -16.767,-30.799c-7.004,-12.837 -14.103,-25.612 -21.285,-38.35c-1.944,-3.451 -3.888,-6.903 -5.891,-10.458c-3.575,-6.333 -7.158,-12.662 -10.752,-18.984c-11.644,-20.771 -11.644,-20.771 -11.644,-30.03Z" style="fill:#648b8a;fill-rule:nonzero;"/><path d="M2741.667,1179.167c16.722,5.574 18.451,12.52 26.986,27.751c1.363,2.406 2.725,4.813 4.129,7.292c4.422,7.83 8.79,15.69 13.156,23.551c3.005,5.351 6.013,10.699 9.025,16.046c5.937,10.552 11.853,21.116 17.753,31.689c6.884,12.3 13.833,24.558 20.846,36.786c1.764,3.085 3.527,6.171 5.345,9.35c3.15,5.51 6.309,11.015 9.477,16.514c9.951,17.573 9.951,17.573 9.951,26.854l-150,0c-16.855,-50.565 -13.858,-105.457 6.478,-154.671c7.655,-15.247 15.939,-28.063 26.855,-41.162Z" style="fill:#618a88;fill-rule:nonzero;"/><path d="M2916.667,1086.979c4.842,0.056 4.842,0.056 9.782,0.114c7.851,0.097 15.701,0.246 23.551,0.407c-21.333,44.761 -45.489,87.734 -70.068,130.778c-13.064,22.908 -25.721,46.026 -38.265,69.222c-13.383,-12.305 -22.057,-24.652 -30.908,-40.495c-3.839,-6.856 -3.839,-6.856 -7.756,-13.851c-2.624,-4.753 -5.248,-9.507 -7.951,-14.404c-4.008,-7.13 -4.008,-7.13 -8.097,-14.404c-21.468,-38.583 -21.468,-38.583 -24.455,-54.346c47.109,-40.394 91.306,-64.437 154.167,-63.021Z" style="fill:#6a9997;fill-rule:nonzero;"/><path d="M4020.833,1883.333l37.5,0l0,345.833l-41.667,0c-0.096,-44.476 -0.17,-88.952 -0.216,-133.428c-0.022,-20.65 -0.051,-41.299 -0.098,-61.949c-0.045,-19.911 -0.07,-39.822 -0.081,-59.733c-0.008,-7.614 -0.023,-15.228 -0.045,-22.842c-0.03,-10.626 -0.034,-21.252 -0.032,-31.879c-0.015,-3.18 -0.03,-6.36 -0.045,-9.636c0.043,-21.726 0.043,-21.726 4.685,-26.368Z" style="fill:#505f64;fill-rule:nonzero;"/><path d="M4287.5,1933.333c13.983,12.861 20.118,27.946 27.393,45.182c1.37,3.19 2.739,6.379 4.15,9.665c2.882,6.732 5.75,13.471 8.603,20.215c4.376,10.332 8.808,20.638 13.248,30.943c2.795,6.547 5.586,13.095 8.374,19.645c1.328,3.086 2.656,6.172 4.024,9.352c5.294,12.584 9.208,22.034 9.208,35.83l-141.667,0c2.834,-14.17 5.006,-24.196 10.377,-36.968c1.251,-3.002 2.502,-6.003 3.791,-9.096c1.346,-3.174 2.691,-6.347 4.078,-9.617c1.381,-3.3 2.763,-6.6 4.186,-10c4.397,-10.493 8.821,-20.974 13.246,-31.455c2.994,-7.131 5.986,-14.262 8.976,-21.395c7.318,-17.443 14.659,-34.876 22.013,-52.303Z" style="fill:#f8f8f7;fill-rule:nonzero;"/><path d="M3641.667,1162.5c18.663,10.204 33.855,21.41 41.667,41.667c3.039,19.118 2.03,36.368 -7.031,53.646c-12.153,16.423 -22.19,24.184 -42.562,27.474c-38.357,0.395 -38.357,0.395 -53.011,-11.328c-17.022,-19.71 -20.157,-33.811 -19.515,-59.505c2.282,-18.254 10.29,-29.079 24.382,-40.495c17.392,-11.462 35.424,-16.708 56.071,-11.458Z" style="fill:#689796;fill-rule:nonzero;"/><path d="M1591.667,1954.167c13.254,11.075 18.617,24.264 25.57,39.86c1.185,2.645 2.369,5.289 3.59,8.014c2.489,5.573 4.964,11.152 7.426,16.737c3.778,8.565 7.604,17.107 11.437,25.648c18.644,41.865 18.644,41.865 18.644,51.408l-125,0c7.444,-22.331 14.31,-42.743 23.747,-63.949c2.028,-4.579 4.055,-9.158 6.144,-13.875c2.081,-4.654 4.163,-9.308 6.307,-14.103c2.13,-4.799 4.259,-9.598 6.453,-14.543c5.212,-11.739 10.44,-23.471 15.682,-35.197Z" style="fill:#f7f8f6;fill-rule:nonzero;"/><path d="M2428.695,1564.486c15.341,11.059 30.002,22.88 44.653,34.831c16.471,13.22 33.062,23.972 51.652,34.017l0,4.167l-216.667,0c10.222,-10.222 18.289,-16.706 30.306,-24.219c3.438,-2.159 6.875,-4.318 10.417,-6.543c3.577,-2.224 7.154,-4.447 10.84,-6.738c3.545,-2.224 7.09,-4.447 10.742,-6.738c6.812,-4.265 13.64,-8.504 20.487,-12.712c7.057,-4.414 13.941,-9.104 20.756,-13.883c8.952,-4.167 8.952,-4.167 16.813,-2.181Z" style="fill:#f8f9f7;fill-rule:nonzero;"/><path d="M3033.333,554.167c2.75,1.375 5.5,2.75 8.333,4.167l0,12.5l-8.333,0c-0.516,4.555 -1.031,9.109 -1.562,13.802c-2.604,15.365 -2.604,15.365 -10.938,27.865c2.484,-20.287 6.541,-38.866 12.5,-58.333Z" style="fill:#89bfba;fill-rule:nonzero;"/><path d="M3054.167,900c11.351,9.803 15.892,19.271 20.833,33.333c-12.147,-4.475 -19.909,-7.409 -29.167,-16.667l8.333,0l0,-16.667Z" style="fill:#e9f3f0;fill-rule:nonzero;"/></svg>