<?xml version="1.0" encoding="UTF-8" standalone="no"?>
<!DOCTYPE svg PUBLIC "-//W3C//DTD SVG 1.1//EN" "http://www.w3.org/Graphics/SVG/1.1/DTD/svg11.dtd">
<svg width="100%" height="100%" viewBox="0 0 1408 736" version="1.1" xmlns="http://www.w3.org/2000/svg" xmlns:xlink="http://www.w3.org/1999/xlink" xml:space="preserve" xmlns:serif="http://www.serif.com/" style="fill-rule:evenodd;clip-rule:evenodd;stroke-linejoin:round;stroke-miterlimit:2;">
    <rect x="0" y="0" width="1408" height="736" style="fill:rgb(253,254,253);fill-rule:nonzero;"/>
    <g transform="matrix(1,0,0,1,491.875,221.875)">
        <path d="M0,0C4.76,2.726 9.296,5.831 13.833,8.912C19.257,12.592 24.792,16.067 30.375,19.5C44.981,28.49 59.451,37.688 73.916,46.903C79.176,50.253 84.442,53.593 89.717,56.919C92.071,58.403 94.422,59.891 96.773,61.379C99.541,63.13 102.317,64.866 105.102,66.59C124.672,78.786 124.672,78.786 127.125,87.125C127.994,94.353 127.423,100.16 123.125,106.125C117.283,112.205 110.184,116.393 103,120.688C100.671,122.097 98.345,123.512 96.02,124.926C95.437,125.279 94.854,125.632 94.254,125.996C88.682,129.379 83.178,132.862 77.688,136.375C76.789,136.949 75.89,137.524 74.964,138.115C73.199,139.244 71.434,140.373 69.668,141.502C65.663,144.058 61.644,146.592 57.625,149.125C51.698,152.861 45.785,156.617 39.881,160.388C30.022,166.682 20.153,172.953 10.104,178.939C8.821,179.708 7.543,180.485 6.271,181.271C-0.955,185.731 -7.262,189.138 -15.875,187.125C-22.805,184.326 -26.855,180.921 -29.875,174.125C-30.408,173.227 -30.408,173.227 -30.952,172.311C-32.19,169.378 -32.13,166.951 -32.136,163.769C-32.143,162.461 -32.15,161.153 -32.157,159.805C-32.155,158.357 -32.152,156.909 -32.15,155.462C-32.154,153.936 -32.159,152.409 -32.165,150.883C-32.179,146.738 -32.179,142.594 -32.177,138.449C-32.176,134.987 -32.18,131.526 -32.185,128.064C-32.196,119.895 -32.197,111.726 -32.191,103.557C-32.185,95.136 -32.197,86.714 -32.218,78.292C-32.236,71.058 -32.242,63.824 -32.239,56.59C-32.237,52.271 -32.239,47.952 -32.253,43.633C-32.266,39.57 -32.264,35.506 -32.251,31.442C-32.249,29.954 -32.251,28.465 -32.26,26.976C-32.311,17.032 -32.123,9.574 -24.875,2.125C-17.718,-3.509 -8.227,-3.859 0,0Z" style="fill:rgb(253,253,253);fill-rule:nonzero;"/>
    </g>
    <g transform="matrix(1,0,0,1,728,133)">
        <path d="M0,0C2.923,2.553 4.442,5.431 6.223,8.855C6.845,10.04 7.467,11.224 8.089,12.408C8.411,13.025 8.733,13.643 9.065,14.279C14.919,25.48 20.92,36.516 28,47C28.411,47.61 28.821,48.219 29.244,48.848C34.633,56.777 40.443,63.989 47,71C48.194,72.349 49.382,73.703 50.562,75.062C51.118,75.695 51.674,76.328 52.246,76.98C53.523,78.45 54.784,79.934 56.035,81.426C56.725,82.234 57.414,83.042 58.125,83.875C59.057,84.985 59.057,84.985 60.008,86.117C64.4,90.269 70.144,90.661 75.875,91.688C101.948,96.691 127.75,106.169 151,119C151.615,119.338 152.229,119.676 152.862,120.025C168.003,128.476 181.562,138.952 194,151C194.538,151.512 195.075,152.024 195.629,152.551C203.277,159.844 210.004,167.258 216,176C216.729,177.002 216.729,177.002 217.473,178.023C219.979,181.778 220.146,184.424 219.49,188.815C218.651,192.557 217.115,195.879 215.438,199.312C215.08,200.054 214.722,200.795 214.353,201.559C197.758,234.992 162.331,247.158 129.429,259.238C126.351,260.413 123.427,261.754 120.486,263.237C105.196,270.673 90.865,271.263 74.154,271.045C70.353,271.005 66.553,271.019 62.752,271.026C56.194,271.03 49.636,271.003 43.078,270.952C33.597,270.878 24.116,270.855 14.634,270.844C-0.755,270.824 -16.144,270.764 -31.533,270.679C-46.467,270.596 -61.401,270.533 -76.335,270.494C-77.258,270.492 -78.181,270.49 -79.132,270.487C-83.765,270.475 -88.397,270.464 -93.029,270.453C-131.353,270.36 -169.676,270.202 -208,270C-202.558,264.485 -202.558,264.485 -199.348,262.598C-198.665,262.19 -197.983,261.782 -197.279,261.361C-196.548,260.933 -195.816,260.504 -195.062,260.062C-193.448,259.097 -191.835,258.129 -190.223,257.16C-188.949,256.395 -188.949,256.395 -187.649,255.614C-183.054,252.814 -178.53,249.903 -174,247C-170.335,244.664 -166.668,242.332 -163,240C-161.673,239.153 -161.673,239.153 -160.319,238.29C-157.823,236.703 -155.32,235.131 -152.812,233.562C-152.064,233.084 -151.316,232.605 -150.545,232.111C-148.744,230.994 -146.876,229.986 -145,229C-141.655,230.115 -141.158,230.813 -139.062,233.5C-128.693,245.707 -111.802,255.919 -96,259C-93.489,259.091 -91.006,259.131 -88.496,259.12C-87.737,259.121 -86.978,259.122 -86.196,259.123C-83.652,259.124 -81.108,259.119 -78.563,259.114C-76.74,259.113 -74.917,259.113 -73.094,259.114C-68.142,259.114 -63.19,259.108 -58.238,259.101C-53.063,259.095 -47.889,259.095 -42.715,259.093C-32.915,259.09 -23.116,259.082 -13.316,259.072C-2.16,259.061 8.996,259.055 20.151,259.05C43.101,259.04 66.05,259.022 89,259C86.603,256.912 84.204,254.827 81.804,252.742C81.13,252.154 80.455,251.566 79.76,250.961C75.009,246.836 70.174,242.881 65.125,239.125C63.145,237.634 61.165,236.143 59.202,234.629C57.018,232.969 57.018,232.969 54.665,231.539C48.475,227.42 48.475,227.42 47.211,223.639C46.96,220.875 46.985,218.245 47.121,215.473C47.14,213.989 47.14,213.989 47.16,212.476C47.21,209.336 47.323,206.201 47.438,203.062C47.483,200.927 47.524,198.79 47.561,196.654C47.659,191.434 47.815,186.218 48,181L58,181C57.947,182.144 57.893,183.287 57.838,184.466C55.7,206.439 55.827,216.31 60.277,220.27C63.518,223.153 69.115,231.21 73.034,233.042C75.726,234.353 77.858,236.122 80.125,238.062C80.882,238.666 81.638,239.269 82.418,239.891C85.798,242.652 89.121,245.475 92.438,248.312C93.042,248.829 93.646,249.345 94.268,249.877C98.883,253.846 98.883,253.846 100.313,255.727C102.01,257.292 102.01,257.292 104.716,256.852C108.409,255.894 111.969,254.708 115.539,253.375C116.254,253.112 116.968,252.849 117.704,252.579C120.014,251.726 122.32,250.864 124.625,250C125.412,249.707 126.199,249.413 127.009,249.111C138.496,244.818 149.844,240.346 160.896,235.013C163.032,233.984 165.181,232.986 167.332,231.988C179.899,226.061 189.625,219.301 198,208C197.16,208.136 196.321,208.272 195.456,208.411C194.278,208.602 193.1,208.792 191.887,208.988C190.585,209.199 189.283,209.409 187.941,209.626C185.091,210.087 182.241,210.545 179.391,211.001C170.307,212.455 170.307,212.455 161.238,214C145.528,216.735 133.534,217.233 119.082,209.997C116.907,208.956 114.709,208.044 112.469,207.152C111.731,206.854 110.994,206.556 110.234,206.248C108.815,205.678 107.392,205.119 105.963,204.574C104.035,203.773 104.035,203.773 101,202C99.722,198.759 99.834,197.497 100.938,194.188C101.288,193.466 101.639,192.744 102,192C106.056,192.63 109.316,193.948 113.008,195.723C114.16,196.261 115.313,196.799 116.5,197.354C118.902,198.481 121.291,199.627 123.68,200.783C124.84,201.32 126,201.857 127.195,202.41C128.237,202.907 129.279,203.403 130.352,203.914C139.275,206.57 148.649,204.688 157.676,203.285C158.845,203.11 160.013,202.935 161.218,202.754C164.917,202.198 168.615,201.63 172.312,201.062C174.813,200.685 177.314,200.308 179.814,199.932C188.134,198.677 188.134,198.677 196.449,197.393C198.516,197.075 200.586,196.778 202.657,196.489C205.1,196.221 205.1,196.221 206.496,194.328C206.962,193.299 206.962,193.299 207.438,192.25C207.766,191.575 208.095,190.899 208.434,190.203C209.166,187.356 208.908,185.799 208,183C199.823,169.792 188.227,158.399 176,149C175.028,148.212 174.056,147.425 173.055,146.613C143.02,122.638 105.347,108.443 67.875,101.188C60.991,99.811 56.704,98.301 52,93C51.43,92.366 50.86,91.732 50.273,91.078C49.081,89.723 47.902,88.357 46.734,86.98C45.147,85.168 43.499,83.528 41.75,81.875C26.834,67.125 15.26,48.137 5,30C3.5,59.764 15.106,85.438 34.75,107.625C35.821,108.762 36.899,109.892 38,111C36.125,115.75 36.125,115.75 35,118C31.806,117.365 29.502,116.246 26.754,114.516C25.927,113.999 25.1,113.483 24.248,112.95C23.362,112.389 22.476,111.828 21.562,111.25C19.667,110.061 17.771,108.872 15.875,107.684C14.417,106.767 14.417,106.767 12.93,105.832C10.11,104.069 7.277,102.329 4.438,100.598C-5.667,94.431 -15.536,88.114 -25,81C-25.567,80.576 -26.134,80.152 -26.718,79.715C-33.365,74.725 -39.856,69.606 -46,64C-39.409,86.485 -25.557,99.994 -7.188,113.625C-5.61,114.801 -5.61,114.801 -4,116L-4,117C-17.462,118.368 -17.462,118.368 -23.195,115.277C-25.962,112.98 -28.48,110.564 -31,108C-32.722,106.512 -34.451,105.032 -36.188,103.562C-38.418,101.629 -38.418,101.629 -40,100L-40,98C-70.407,100.024 -100.084,112.825 -126.211,128.012C-127.109,128.527 -128.007,129.042 -128.933,129.573C-130.692,130.587 -132.44,131.619 -134.177,132.672C-140.143,136.113 -140.143,136.113 -144.164,135.582C-147.482,133.731 -150.643,131.741 -153.75,129.562C-159.286,125.779 -164.89,122.161 -170.625,118.688C-171.373,118.234 -172.122,117.78 -172.893,117.312C-174.454,116.365 -176.015,115.419 -177.577,114.473C-189.564,107.187 -201.457,99.747 -213.312,92.25C-214.28,91.641 -215.248,91.032 -216.245,90.405C-217.13,89.843 -218.014,89.282 -218.926,88.703C-219.714,88.205 -220.502,87.706 -221.314,87.192C-221.87,86.799 -222.427,86.405 -223,86L-223,85L-50,85C-51.98,80.05 -53.96,75.1 -56,70C-58.947,59.432 -60.162,49.952 -60,39C-55.342,42.283 -51.051,45.808 -46.875,49.688C-41.081,55.026 -34.974,59.863 -28.729,64.661C-27.101,65.922 -25.493,67.208 -23.887,68.496C-13.726,76.565 -2.704,84.326 9,90C8.203,88.424 8.203,88.424 7.391,86.816C5.566,83.198 3.759,79.571 1.961,75.939C1.208,74.42 0.447,72.905 -0.316,71.391C-5.191,61.221 -6.56,50.292 -6.5,39.125C-6.499,37.973 -6.497,36.822 -6.496,35.635C-6.296,24.218 -5.202,10.405 0,0Z" style="fill:rgb(124,175,171);fill-rule:nonzero;"/>
    </g>
    <g transform="matrix(1,0,0,1,603.5625,458.875)">
        <path d="M0,0C1.17,1.015 2.317,2.057 3.438,3.125C4.049,3.648 4.66,4.172 5.289,4.711C12.739,11.463 16.793,20.705 17.656,30.645C18.053,42.193 14.964,51.676 8.438,61.125C7.86,62.012 7.282,62.899 6.688,63.812C-1.998,72.739 -12.269,77.136 -24.624,77.595C-32.937,77.694 -40.069,77.023 -47.562,73.125C-48.868,72.471 -48.868,72.471 -50.199,71.805C-60.579,66.126 -66.11,57.957 -70.562,47.125C-73.7,35.295 -71.715,23.433 -65.812,12.938C-59.054,2.472 -49.07,-4.302 -36.965,-7.578C-24.322,-9.14 -10.627,-7.647 0,0Z" style="fill:rgb(69,86,92);fill-rule:nonzero;"/>
    </g>
    <g transform="matrix(1,0,0,1,491.875,221.875)">
        <path d="M0,0C4.76,2.726 9.296,5.831 13.833,8.912C19.257,12.592 24.792,16.067 30.375,19.5C44.981,28.49 59.451,37.688 73.916,46.903C79.176,50.253 84.442,53.593 89.717,56.919C92.071,58.403 94.422,59.891 96.773,61.379C99.541,63.13 102.317,64.866 105.102,66.59C124.672,78.786 124.672,78.786 127.125,87.125C127.994,94.353 127.423,100.16 123.125,106.125C117.283,112.205 110.184,116.393 103,120.688C100.671,122.097 98.345,123.512 96.02,124.926C95.437,125.279 94.854,125.632 94.254,125.996C88.682,129.379 83.178,132.862 77.688,136.375C76.789,136.949 75.89,137.524 74.964,138.115C73.199,139.244 71.434,140.373 69.668,141.502C65.663,144.058 61.644,146.592 57.625,149.125C51.698,152.861 45.785,156.617 39.881,160.388C30.022,166.682 20.153,172.953 10.104,178.939C8.821,179.708 7.543,180.485 6.271,181.271C-0.955,185.731 -7.262,189.138 -15.875,187.125C-22.805,184.326 -26.855,180.921 -29.875,174.125C-30.408,173.227 -30.408,173.227 -30.952,172.311C-32.19,169.378 -32.13,166.951 -32.136,163.769C-32.143,162.461 -32.15,161.153 -32.157,159.805C-32.155,158.357 -32.152,156.909 -32.15,155.462C-32.154,153.936 -32.159,152.409 -32.165,150.883C-32.179,146.738 -32.179,142.594 -32.177,138.449C-32.176,134.987 -32.18,131.526 -32.185,128.064C-32.196,119.895 -32.197,111.726 -32.191,103.557C-32.185,95.136 -32.197,86.714 -32.218,78.292C-32.236,71.058 -32.242,63.824 -32.239,56.59C-32.237,52.271 -32.239,47.952 -32.253,43.633C-32.266,39.57 -32.264,35.506 -32.251,31.442C-32.249,29.954 -32.251,28.465 -32.26,26.976C-32.311,17.032 -32.123,9.574 -24.875,2.125C-17.718,-3.509 -8.227,-3.859 0,0ZM-19.375,9.938C-21.958,13.704 -22.004,16.765 -22.015,21.216C-22.021,22.49 -22.027,23.765 -22.033,25.078C-22.034,26.493 -22.035,27.908 -22.036,29.323C-22.041,30.812 -22.046,32.3 -22.051,33.788C-22.064,37.834 -22.071,41.879 -22.075,45.925C-22.078,48.452 -22.082,50.98 -22.087,53.508C-22.1,61.416 -22.11,69.325 -22.114,77.234C-22.118,86.362 -22.136,95.491 -22.165,104.62C-22.187,111.676 -22.197,118.733 -22.198,125.789C-22.199,130.004 -22.205,134.218 -22.223,138.433C-22.239,142.398 -22.241,146.363 -22.233,150.328C-22.232,151.782 -22.236,153.235 -22.246,154.689C-22.259,156.677 -22.251,158.665 -22.242,160.653C-22.244,161.765 -22.245,162.876 -22.247,164.021C-21.723,168.398 -20.132,171.728 -17.188,175C-13.564,176.763 -10.743,176.928 -6.875,176.125C4.99,171.651 15.561,163.887 26.138,157.044C31.166,153.814 36.24,150.658 41.312,147.5C49.191,142.587 57.054,137.652 64.899,132.685C70.297,129.271 75.712,125.883 81.134,122.506C85.189,119.977 89.239,117.438 93.288,114.898C95.949,113.235 98.618,111.585 101.289,109.938C102.818,108.98 104.347,108.022 105.875,107.062C106.56,106.646 107.244,106.23 107.95,105.801C112.139,103.145 114.702,100.582 117.125,96.125C117.817,91.822 117.676,89.935 115.211,86.312C111.551,82.141 106.883,79.493 102.188,76.625C100.209,75.392 98.232,74.159 96.254,72.926C95.241,72.299 94.228,71.672 93.184,71.026C88.306,67.995 83.467,64.902 78.625,61.812C76.779,60.638 74.932,59.463 73.086,58.289C69.131,55.77 65.188,53.233 61.25,50.688C54.053,46.05 46.783,41.529 39.517,37C32.466,32.6 25.443,28.159 18.438,23.688C9.461,17.963 9.461,17.963 0.438,12.312C-0.536,11.708 -1.509,11.103 -2.512,10.48C-7.688,7.512 -14.348,6.293 -19.375,9.938Z" style="fill:rgb(93,127,128);fill-rule:nonzero;"/>
    </g>
    <g transform="matrix(1,0,0,1,375,452)">
        <path d="M0,0L16,0C21.54,10.862 26.745,21.846 31.85,32.919C34.704,39.098 37.587,45.26 40.551,51.387C40.841,51.987 41.132,52.588 41.431,53.207C42.815,56.063 44.204,58.916 45.598,61.767C48.994,68.751 52.071,75.807 55,83L37,83C34.36,77.06 31.72,71.12 29,65C14.81,64.67 1.62,64.34 -13,64C-13.33,65.65 -14.391,67.467 -15,69C-15.981,71.47 -16.986,73.887 -18.062,76.312C-19.517,79.623 -19.517,79.623 -21,83L-38,83C-36.423,78.27 -34.652,73.922 -32.508,69.453C-32.166,68.733 -31.824,68.012 -31.471,67.27C-30.738,65.728 -30.004,64.187 -29.269,62.646C-27.333,58.592 -25.409,54.532 -23.484,50.473C-23.1,49.663 -22.716,48.853 -22.32,48.018C-18.958,40.929 -15.653,33.816 -12.375,26.688C-11.896,25.646 -11.417,24.604 -10.923,23.531C-10.027,21.581 -9.131,19.632 -8.235,17.682C-5.515,11.776 -2.756,5.889 0,0Z" style="fill:rgb(69,86,92);fill-rule:nonzero;"/>
    </g>
    <g transform="matrix(1,0,0,1,441,453)">
        <path d="M0,0C6.001,-0.96 12.094,-1.83 18,0C22.818,3.541 25.792,8.878 28.781,13.956C30.453,16.759 32.335,19.358 34.25,22C35.17,23.331 36.088,24.664 37,26C41.032,24.656 42.384,21.989 44.688,18.625C45.136,18 45.585,17.376 46.047,16.732C48.173,13.755 50.074,10.86 51.801,7.625C53.654,4.354 54.974,2.256 58,0C63.926,-1.296 70.025,-0.632 76,0C73.458,4.627 70.778,8.779 67.5,12.938C66.626,14.061 65.752,15.184 64.879,16.309C64.418,16.9 63.956,17.492 63.481,18.101C60.786,21.557 58.101,25.02 55.438,28.5C54.913,29.17 54.388,29.84 53.848,30.531C50.096,35.252 50.096,35.252 49,41C50.506,43.532 50.506,43.532 52.812,45.938C56.42,50.103 59.768,54.306 62.938,58.812C63.55,59.682 63.55,59.682 64.175,60.569C65.014,61.762 65.852,62.955 66.69,64.149C68.063,66.089 69.456,68.013 70.855,69.934C71.319,70.573 71.782,71.212 72.26,71.87C73.154,73.102 74.052,74.331 74.953,75.558C78,79.776 78,79.776 78,82C75.141,82.245 72.302,82.422 69.438,82.562C68.638,82.638 67.838,82.713 67.014,82.791C63.305,82.927 60.957,82.848 58.11,80.323C56.253,77.962 54.623,75.528 53,73C51.757,71.268 50.509,69.54 49.254,67.816C48.021,66.067 46.791,64.316 45.562,62.562C44.926,61.666 44.29,60.769 43.635,59.846C43.035,58.99 42.435,58.135 41.816,57.254C41.274,56.484 40.732,55.714 40.174,54.92C39,53 38,54 38,52C33.516,56.167 31.086,59.822 27.562,64.812C25.916,67.126 24.268,69.438 22.597,71.735C21.54,73.234 20.533,74.77 19.583,76.339C16.188,81.656 16.188,81.656 12.843,82.624C10.386,82.787 8.078,82.703 5.625,82.5C4.794,82.464 3.962,82.428 3.105,82.391C1.068,82.297 -0.966,82.153 -3,82C-1.62,79.059 -0.025,76.519 1.906,73.91C2.481,73.132 3.055,72.353 3.647,71.551C4.258,70.73 4.87,69.909 5.5,69.062C6.126,68.218 6.751,67.374 7.396,66.503C20.827,48.42 20.827,48.42 25.336,43.398C27.194,41.213 27.194,41.213 26.98,39.004C25.696,36.378 24.11,34.247 22.312,31.938C21.512,30.895 20.711,29.852 19.887,28.777C19.435,28.189 18.983,27.601 18.517,26.996C15.505,23.033 12.571,19.012 9.625,15C8.43,13.375 7.235,11.75 6.039,10.125C5.526,9.426 5.012,8.728 4.483,8.008C3.45,6.609 2.39,5.23 1.31,3.867C0,2 0,2 0,0Z" style="fill:rgb(69,86,92);fill-rule:nonzero;"/>
    </g>
    <g transform="matrix(1,0,0,1,1025,453)">
        <path d="M0,0L10,0C16.763,14.417 23.316,28.89 29.543,43.548C33.485,52.825 37.523,62.058 41.612,71.272C42.043,72.246 42.474,73.219 42.918,74.223C43.487,75.503 43.487,75.503 44.067,76.809C45,79 45,79 46,82L35,82C33.662,78.877 32.33,75.752 31,72.625C30.618,71.736 30.237,70.846 29.844,69.93C29.483,69.079 29.122,68.228 28.75,67.352C28.415,66.566 28.08,65.781 27.734,64.971C27,63 27,63 27,61L-17,61C-17.99,63.97 -18.98,66.94 -20,70C-20.87,72.198 -21.762,74.387 -22.688,76.562C-23.124,77.595 -23.561,78.628 -24.012,79.691C-24.338,80.453 -24.664,81.215 -25,82L-35,82C-32.842,75.146 -30.196,68.674 -27.25,62.125C-22.133,50.635 -17.159,39.088 -12.236,27.513C-8.304,18.269 -4.274,9.093 0,0Z" style="fill:rgb(72,88,93);fill-rule:nonzero;"/>
    </g>
    <g transform="matrix(1,0,0,1,499,275)">
        <path d="M0,0C3.728,1.491 6.359,2.736 9.625,4.875C10.591,5.5 11.556,6.125 12.551,6.77C13.094,7.122 13.638,7.475 14.198,7.838C17.718,10.108 21.268,12.33 24.812,14.562C32.154,19.195 39.487,23.842 46.812,28.5C47.737,29.087 48.662,29.674 49.615,30.28C54.109,33.139 58.583,36.021 63,39C61.582,43.255 58.461,44.547 54.812,46.812C54.061,47.289 53.309,47.765 52.534,48.256C50.894,49.295 49.251,50.331 47.606,51.363C44.045,53.6 40.497,55.858 36.949,58.117C35.104,59.292 33.258,60.464 31.41,61.635C26.666,64.644 21.945,67.683 17.258,70.781C16.342,71.385 15.427,71.988 14.484,72.61C12.737,73.764 10.995,74.923 9.257,76.089C8.477,76.604 7.698,77.118 6.895,77.648C6.212,78.104 5.53,78.559 4.827,79.029C3,80 3,80 0,80L0,0Z" style="fill:rgb(95,135,135);fill-rule:nonzero;"/>
    </g>
    <g transform="matrix(1,0,0,1,592,469)">
        <path d="M0,0C6.731,4.207 10.361,10.52 12.613,18.051C14.337,26.74 12.323,34.97 7.457,42.336C2.876,47.976 -2.202,50.734 -9,53C-19.475,53.745 -26.602,53.045 -34.75,46.312C-41.296,40.184 -44.044,33.379 -44.438,24.5C-44.36,16.597 -41.44,10.078 -36.359,4.055C-25.971,-5.606 -12.317,-6.843 0,0Z" style="fill:rgb(251,252,251);fill-rule:nonzero;"/>
    </g>
    <g transform="matrix(1,0,0,1,684,453)">
        <path d="M0,0L9,0C9.31,0.55 9.62,1.1 9.939,1.667C11.459,4.362 12.979,7.056 14.5,9.75C15.072,10.762 15.643,11.775 16.232,12.818C19.578,18.739 22.939,24.65 26.32,30.551C26.859,31.491 26.859,31.491 27.408,32.45C29.172,35.528 30.937,38.605 32.705,41.681C33.352,42.808 33.998,43.936 34.664,45.098C35.236,46.093 35.808,47.088 36.397,48.114C37.524,50.143 39.581,54.213 40.583,56.306C41.72,59.103 36.72,54.103 39,55C39.056,54.82 39.301,55.702 39.624,55.656C40.877,55.474 43.603,56.057 43.827,55.337C44.922,52.221 46.195,49.504 47.766,46.605C48.597,45.065 48.597,45.065 49.445,43.494C50.338,41.857 50.338,41.857 51.25,40.188C51.863,39.057 52.476,37.927 53.108,36.762C57.621,28.457 62.203,20.189 66.812,11.938C67.719,10.315 67.719,10.315 68.644,8.659C69.201,7.667 69.758,6.675 70.332,5.652C70.824,4.776 71.316,3.899 71.823,2.996C73,1 73,1 74,0L82,0L82,82L73,82C72.67,61.87 72.34,41.74 72,21C67.38,29.58 62.76,38.16 58,47C55.544,51.543 53.087,56.085 50.625,60.625C50.068,61.652 49.511,62.68 48.938,63.738C47.625,66.159 46.313,68.58 45,71L39,71C33.312,61.126 27.735,51.191 22.189,41.237C21.336,39.708 21.336,39.708 20.465,38.148C19.966,37.253 19.467,36.358 18.953,35.435C16.013,30.264 12.997,25.138 10,20C9.67,40.46 9.34,60.92 9,82L0,82L0,0Z" style="fill:rgb(71,87,93);fill-rule:nonzero;"/>
    </g>
    <g transform="matrix(1,0,0,1,872,453)">
        <path d="M0,0C48.704,0 48.704,0 60.902,11.848C70.092,21.621 71.581,32.351 71.34,45.34C70.842,55.48 66.285,64.957 59,72C41.711,85.599 21.118,82 0,82L0,0ZM10,8L10,73C35.175,74.945 35.175,74.945 54.5,63.688C61.452,54.459 63.059,44.308 62,33C59.573,24.524 55.964,17.381 48.188,12.812C46.971,12.08 46.971,12.08 45.73,11.332C33.818,5.521 24.477,8 10,8Z" style="fill:rgb(74,89,93);fill-rule:nonzero;"/>
    </g>
    <g transform="matrix(1,0,0,1,794,452)">
        <path d="M0,0L54,0L54,9L10,9L10,37L49,37L49,45L10,45L10,74L56,74L56,83L0,83L0,0Z" style="fill:rgb(65,82,87);fill-rule:nonzero;"/>
    </g>
    <g transform="matrix(1,0,0,1,541,228)">
        <path d="M0,0L107,0C104.926,2.074 103.865,2.55 101.16,3.488C100.357,3.776 99.555,4.064 98.728,4.36C97.848,4.674 96.969,4.989 96.062,5.312C87.082,8.626 78.433,12.468 69.812,16.625C68.692,17.163 67.571,17.701 66.416,18.255C60.405,21.188 54.695,24.296 49.128,28.009C47,29 47,29 44.941,28.777C41.54,27.415 38.447,25.502 35.312,23.625C34.569,23.184 33.826,22.743 33.061,22.288C25.526,17.779 18.153,13.028 10.821,8.198C9.196,7.129 7.565,6.068 5.934,5.008C5.11,4.469 4.286,3.93 3.438,3.375C2.756,2.929 2.074,2.483 1.371,2.023C0.919,1.686 0.466,1.348 0,1L0,0Z" style="fill:rgb(250,252,251);fill-rule:nonzero;"/>
    </g>
    <g transform="matrix(1,0,0,1,652,336)">
        <path d="M0,0L55,0C53.582,4.253 52.455,7.259 50.285,11.004C49.764,11.909 49.242,12.815 48.705,13.748C48.163,14.677 47.621,15.606 47.062,16.562C46.524,17.495 45.986,18.428 45.432,19.389C42.989,23.614 40.518,27.819 38,32C25.576,31.531 16.261,23.721 8,15C4.067,10.099 2.011,6.033 0,0Z" style="fill:rgb(84,116,118);fill-rule:nonzero;"/>
    </g>
    <g transform="matrix(1,0,0,1,722,322)">
        <path d="M0,0C4.075,1.358 4.496,3.169 6.539,6.898C7.029,7.785 7.029,7.785 7.528,8.689C8.216,9.939 8.9,11.191 9.58,12.446C10.62,14.365 11.672,16.277 12.727,18.188C17.825,27.474 17.825,27.474 19,31C11.034,39.737 -0.992,47.389 -13,48C-17.668,48.062 -22.332,48.058 -27,48C-24.638,41.733 -21.255,36.023 -18,30.188C-17.666,29.587 -17.332,28.986 -16.988,28.366C-11.621,18.72 -6.023,9.253 0,0Z" style="fill:rgb(83,114,116);fill-rule:nonzero;"/>
    </g>
    <g transform="matrix(1,0,0,1,714,262)">
        <path d="M0,0C10.903,0.661 21.89,9.24 29.137,16.777C32.766,21.106 37,26.193 37,32L-17,32C-16.039,28.156 -14.778,25.46 -12.91,21.992C-12.291,20.841 -11.671,19.69 -11.033,18.504C-10.548,17.611 -10.548,17.611 -10.053,16.7C-9.064,14.877 -8.083,13.05 -7.104,11.223C-2.26,2.26 -2.26,2.26 0,0Z" style="fill:rgb(107,153,150);fill-rule:nonzero;"/>
    </g>
    <g transform="matrix(1,0,0,1,718,299)">
        <path d="M0,0C4.948,-0.074 9.895,-0.129 14.844,-0.165C16.528,-0.18 18.212,-0.2 19.896,-0.226C22.313,-0.263 24.73,-0.28 27.148,-0.293C27.904,-0.308 28.659,-0.324 29.437,-0.34C31.56,-0.341 31.56,-0.341 35,0C39.615,6.922 38.697,17.056 37.574,25.02C35.758,33.343 32.016,40.562 28,48C24.058,46.686 23.736,45.236 21.777,41.629C21.161,40.505 20.544,39.381 19.908,38.222C19.251,37.003 18.594,35.783 17.938,34.562C17.266,33.331 16.594,32.1 15.922,30.869C14.576,28.407 13.236,25.943 11.897,23.478C10.216,20.397 8.513,17.331 6.789,14.273C6.323,13.445 5.856,12.617 5.375,11.763C4.517,10.243 3.657,8.725 2.795,7.207C0,2.222 0,2.222 0,0Z" style="fill:rgb(100,139,138);fill-rule:nonzero;"/>
    </g>
    <g transform="matrix(1,0,0,1,658,283)">
        <path d="M0,0C4.013,1.338 4.428,3.005 6.477,6.66C6.804,7.238 7.131,7.815 7.467,8.41C8.529,10.289 9.577,12.176 10.625,14.062C11.346,15.347 12.068,16.63 12.791,17.914C14.216,20.446 15.636,22.981 17.052,25.519C18.704,28.471 20.372,31.413 22.055,34.348C22.478,35.088 22.901,35.829 23.337,36.592C24.093,37.914 24.851,39.235 25.612,40.555C28,44.773 28,44.773 28,47L-8,47C-12.045,34.864 -11.326,21.69 -6.445,9.879C-4.608,6.22 -2.62,3.144 0,0Z" style="fill:rgb(97,138,136);fill-rule:nonzero;"/>
    </g>
    <g transform="matrix(1,0,0,1,700,260.875)">
        <path d="M0,0C1.162,0.014 1.162,0.014 2.348,0.027C4.232,0.051 6.116,0.086 8,0.125C2.88,10.868 -2.917,21.181 -8.816,31.512C-11.952,37.01 -14.989,42.558 -18,48.125C-21.212,45.172 -23.294,42.209 -25.418,38.406C-26.339,36.761 -26.339,36.761 -27.279,35.082C-27.909,33.941 -28.539,32.8 -29.188,31.625C-30.149,29.914 -30.149,29.914 -31.131,28.168C-36.283,18.908 -36.283,18.908 -37,15.125C-25.694,5.431 -15.087,-0.34 0,0Z" style="fill:rgb(106,153,151);fill-rule:nonzero;"/>
    </g>
    <g transform="matrix(1,0,0,1,965,452)">
        <path d="M0,0L9,0L9,83L-1,83C-1.023,72.326 -1.041,61.652 -1.052,50.977C-1.057,46.021 -1.064,41.066 -1.075,36.11C-1.086,31.331 -1.092,26.552 -1.095,21.774C-1.097,19.946 -1.1,18.119 -1.106,16.292C-1.113,13.741 -1.114,11.191 -1.114,8.641C-1.117,7.878 -1.121,7.115 -1.124,6.328C-1.114,1.114 -1.114,1.114 0,0Z" style="fill:rgb(80,95,100);fill-rule:nonzero;"/>
    </g>
    <g transform="matrix(1,0,0,1,1029,464)">
        <path d="M0,0C3.356,3.087 4.828,6.707 6.574,10.844C6.903,11.609 7.232,12.375 7.57,13.163C8.262,14.779 8.95,16.396 9.635,18.015C10.685,20.495 11.749,22.968 12.814,25.441C13.485,27.013 14.155,28.584 14.824,30.156C15.143,30.897 15.462,31.638 15.79,32.401C17.061,35.421 18,37.689 18,41L-16,41C-15.32,37.599 -14.798,35.193 -13.51,32.128C-13.209,31.407 -12.909,30.687 -12.6,29.945C-12.277,29.183 -11.954,28.421 -11.621,27.637C-11.29,26.845 -10.958,26.053 -10.616,25.237C-9.561,22.719 -8.499,20.203 -7.438,17.688C-6.719,15.976 -6.001,14.265 -5.283,12.553C-3.527,8.366 -1.765,4.183 0,0Z" style="fill:rgb(248,248,247);fill-rule:nonzero;"/>
    </g>
    <g transform="matrix(1,0,0,1,874,279)">
        <path d="M0,0C4.479,2.449 8.125,5.138 10,10C10.729,14.588 10.487,18.728 8.312,22.875C5.396,26.817 2.987,28.679 -1.902,29.469C-11.108,29.564 -11.108,29.564 -14.625,26.75C-18.71,22.02 -19.463,18.635 -19.309,12.469C-18.761,8.088 -16.839,5.49 -13.457,2.75C-9.283,-0.001 -4.955,-1.26 0,0Z" style="fill:rgb(104,151,150);fill-rule:nonzero;"/>
    </g>
    <g transform="matrix(1,0,0,1,382,469)">
        <path d="M1,0C3.181,3.658 4.468,5.823 6.137,9.566C6.421,10.201 6.705,10.836 6.998,11.49C7.596,12.827 8.19,14.166 8.781,15.507C9.687,17.562 6.078,9.44 6.998,11.49C11.502,21.524 17,31.71 17,34L-14,34C-12.214,28.641 -9.091,20.412 -6.826,15.322C-6.34,14.223 -7.328,16.454 -6.826,15.322C-6.327,14.205 -7.341,16.473 -6.826,15.322C-6.315,14.17 -7.353,16.509 -6.826,15.322C-5.575,12.505 -0.258,2.814 1,0Z" style="fill:rgb(247,248,246);fill-rule:nonzero;"/>
    </g>
    <g transform="matrix(1,0,0,1,582.886719,375.476562)">
        <path d="M0,0C3.682,2.654 7.201,5.491 10.717,8.359C14.67,11.532 18.652,14.113 23.113,16.523L23.113,17.523L-28.887,17.523C-26.433,15.07 -24.497,13.514 -21.613,11.711C-20.788,11.193 -19.963,10.675 -19.113,10.141C-18.255,9.607 -17.396,9.073 -16.512,8.523C-15.661,7.99 -14.81,7.456 -13.934,6.906C-12.299,5.883 -10.66,4.865 -9.017,3.855C-7.323,2.796 -5.671,1.671 -4.035,0.523C-1.887,-0.477 -1.887,-0.477 0,0Z" style="fill:rgb(248,249,247);fill-rule:nonzero;"/>
    </g>
</svg>
